<svg width="1200" height="800" viewBox="0 0 1200 800" fill="none" xmlns="http://www.w3.org/2000/svg" version="1.2">
 <style>
    .small { font: normal 1.6em "Burst My Bubble"; }
    .smallb { font: bold 1.6em "Burst My Bubble"; }
    .medium { font: normal 2.2em "Burst My Bubble"; }
    .large { font: normal 2.5em "Burst My Bubble"; }
    .huge { font: normal 4em "Burst My Bubble"; }
  </style>
  <g transform="translate(50,50)">
    <rect x="360" y="0" width="650" height="370" stroke="#33AA44" stroke-width="3" stroke-dasharray="5 5" fill="#B4D6B3" fill-opacity="0.1"/>
    <rect x="25" y="30" width="160" height="130" stroke="#4782A0" stroke-width="3" fill="#6BB5C5" fill-opacity="0.25"/>
    <text x="40" y="75" class="large" fill="#4782A0">Wearable</text>
    <rect x="25" y="210" width="160" height="130" stroke="#4782A0" stroke-width="3" fill="#6BB5C5" fill-opacity="0.25"/>

    <g fill="#4782A0" transform="translate(80,90) scale(0.1,0.1)">
      <path d="m447 211h-6v-45c0-8.284-6.716-15-15-15s-15 6.716-15 15v45h-346c-35.841 0-65 29.159-65 65v140c0 35.841 29.159 65 65 65h117.148c20.659 0 38.965-12.394 46.637-31.575 4.478-11.193 15.16-18.425 27.215-18.425s22.737 7.232 27.214 18.426c7.673 19.18 25.979 31.574 46.638 31.574h117.148c35.841 0 65-29.159 65-65v-140c0-35.841-29.159-65-65-65zm35 205c0 19.299-15.701 35-35 35h-117.148c-8.32 0-15.693-4.991-18.783-12.716-9.059-22.649-30.675-37.284-55.069-37.284s-46.01 14.635-55.069 37.283c-3.09 7.726-10.463 12.717-18.783 12.717h-117.148c-19.299 0-35-15.701-35-35v-140c0-19.299 15.701-35 35-35h382c19.299 0 35 15.701 35 35z"/><circle cx="256" cy="286" r="15"/><circle cx="316" cy="286" r="15"/><circle cx="196" cy="286" r="15"/><circle cx="256" cy="165.943" r="15"/><path d="m181.754 91.697c19.795-19.796 46.163-30.697 74.246-30.697s54.451 10.901 74.246 30.697c2.93 2.93 6.768 4.394 10.607 4.394 3.838 0 7.678-1.465 10.606-4.394 5.858-5.857 5.858-15.355 0-21.213-25.461-25.462-59.362-39.484-95.459-39.484s-69.998 14.022-95.46 39.484c-5.857 5.857-5.857 15.355 0 21.213 5.858 5.858 15.356 5.858 21.214 0z"/><path d="m298.426 138.517c3.838 0 7.678-1.465 10.606-4.394 5.858-5.857 5.858-15.355 0-21.213-14.166-14.166-33-21.967-53.033-21.967s-38.868 7.801-53.033 21.967c-5.857 5.857-5.857 15.355 0 21.213 5.857 5.857 15.355 5.857 21.213 0 8.499-8.499 19.799-13.18 31.819-13.18s23.32 4.681 31.819 13.18c2.932 2.93 6.77 4.394 10.609 4.394z"/>
    </g>
    <text x="65" y="250" class="large" fill="#4782A0">Phone</text>
    <g fill="#4782A0" transform="translate(80,265) scale(0.1,0.1)">
      <circle cx="90" cy="75" r="15"/><path d="m275 0h-220c-30.327 0-55 24.673-55 55v402c0 30.327 24.673 55 55 55h220c30.327 0 55-24.673 55-55v-402c0-30.327-24.673-55-55-55zm25 457c0 13.785-11.215 25-25 25h-220c-13.785 0-25-11.215-25-25v-5h270zm0-35h-270v-367c0-13.785 11.215-25 25-25h220c13.785 0 25 11.215 25 25z"/><path d="m145 90h40c8.284 0 15-6.716 15-15s-6.716-15-15-15h-40c-8.284 0-15 6.716-15 15s6.716 15 15 15z"/><path d="m206.6 222.917c8.338-9.644 13.4-22.197 13.4-35.917 0-30.327-24.673-55-55-55s-55 24.673-55 55c0 13.72 5.062 26.273 13.4 35.917-25.876 14.588-43.4 42.32-43.4 74.083v10c0 8.284 6.716 15 15 15h140c8.284 0 15-6.716 15-15v-10c0-31.763-17.524-59.495-43.4-74.083zm-41.6-60.917c13.785 0 25 11.215 25 25s-11.215 25-25 25-25-11.215-25-25 11.215-25 25-25zm-54.775 130c2.533-27.994 26.132-50 54.775-50s52.242 22.006 54.775 50z"/><path d="m235 352h-140c-8.284 0-15 6.716-15 15s6.716 15 15 15h140c8.284 0 15-6.716 15-15s-6.716-15-15-15z"/><circle cx="377" cy="101.853" r="15"/><path d="m430.033 48.82c-5.856-5.858-15.354-5.857-21.213 0-5.858 5.858-5.858 15.355 0 21.213 17.545 17.545 17.545 46.095 0 63.64-5.858 5.858-5.858 15.355 0 21.213 2.929 2.929 6.768 4.393 10.606 4.393s7.678-1.465 10.606-4.394c29.242-29.242 29.242-76.823.001-106.065z"/><path d="m472.459 6.394c-5.857-5.858-15.355-5.858-21.213 0s-5.858 15.355 0 21.213c19.832 19.831 30.754 46.199 30.754 74.246s-10.922 54.415-30.754 74.247c-5.858 5.857-5.858 15.355 0 21.213 2.929 2.929 6.768 4.394 10.606 4.394s7.678-1.465 10.606-4.394c25.499-25.499 39.542-59.4 39.542-95.46s-14.043-69.961-39.541-95.459z"/>
    </g>
  </g>
  <g transform="translate(410,70)">
    <rect x="20" y="10" width="160" height="70"  stroke="#33AA44" stroke-width="3" fill="#B4D6B3" fill-opacity="0.25"/>
    <rect x="20" y="100" width="160" height="70"  stroke="#33AA44" stroke-width="3" fill="#B4D6B3" fill-opacity="0.25"/>
    <rect x="20" y="240" width="160" height="70"  stroke="#33AA44" stroke-width="3" fill="#B4D6B3" fill-opacity="0.25"/>
    <text x="65" y="55" class="medium" fill="#33AA44">Edge 1</text>
    <text x="65" y="145" class="medium" fill="#33AA44">Edge 2</text>
    <text x="60" y="285" class="medium" fill="#33AA44">Edge N</text>
  </g>
  <g transform="translate(850,100)">
    <g transform="translate(-40,-20) scale(4,4)">
      <path style="fill:#996666;" d="M48.077,25.553c0.021-0.304,0.03-0.604,0.03-0.897c0-8.459-6.882-15.341-15.34-15.341
        c-6.084,0-11.598,3.611-14.032,9.174c-0.029,0.042-0.123,0.106-0.161,0.117c-3.776,0.395-7.116,2.797-8.713,6.266
        c-0.046,0.088-0.227,0.236-0.316,0.263C3.925,26.369,0,31.231,0,36.96c0,6.692,5.341,11.935,12.159,11.935h34.448
        c6.397,0,11.603-5.307,11.603-11.83C58.21,31.164,53.783,26.278,48.077,25.553z M46.607,45.894H12.159
        C7.023,45.894,3,41.97,3,36.959c0-4.308,2.956-7.966,7.187-8.895c1.001-0.219,1.964-0.996,2.397-1.935
        c1.158-2.515,3.573-4.255,6.302-4.54c1.089-0.113,2.151-0.883,2.585-1.873c1.97-4.497,6.403-7.402,11.297-7.402
        c6.805,0,12.34,5.536,12.34,12.341c0,0.378-0.021,0.773-0.064,1.176c-0.102,0.951-0.169,1.579,0.334,2.137
        c0.284,0.316,0.699,0.501,1.124,0.501c0.028-0.014,0.108-0.004,0.162-0.01c4.718,0.031,8.547,3.878,8.547,8.603
        C55.21,41.85,51.27,45.894,46.607,45.894z"/>
    </g>
    <text x="40" y="220" class="large" fill="#996666">Cloud</text>
  </g>
  <!-- Arrow gRPC -->
  <g transform="translate(270,150)" fill="#4782A0">
    <text x="-5" y="60" class="smallb">ms latency</text>
    <text x="-20" y="90" class="smallb">limited bandwidth</text>
    <text x="-12" y="120" class="smallb">auto-migration</text>
    <g transform="translate(115,-60) scale(0.0100000,-0.0100000) rotate(190)" stroke="none">
      <path d="M2123 4381 c-28 -26 -136 -87 -240 -159 -566 -391 -830 -534 -1460
      -791 -255 -103 -316 -133 -335 -160 -8 -11 -26 -23 -41 -26 -42 -11 -53 -31
      -31 -56 27 -30 83 -57 382 -180 598 -248 975 -458 1522 -848 220 -157 301
      -197 316 -156 8 20 -11 73 -50 138 l-33 55 35 -15 c34 -14 37 -14 54 7 26 32
      23 65 -32 340 -65 326 -101 600 -80 600 5 0 54 -7 108 -15 434 -64 1496 -100
      3732 -125 2218 -25 3439 -32 4315 -27 1391 10 1873 33 2290 113 153 29 201 43
      216 60 16 20 -43 32 -251 49 -260 22 -622 32 -1655 50 -3240 54 -6854 79
      -8070 56 -341 -6 -637 -14 -657 -18 l-38 -6 0 139 c0 152 9 272 41 524 12 91
      22 208 23 260 2 64 8 105 19 126 8 17 17 44 19 60 3 25 -1 29 -22 32 -14 1
      -48 -11 -77 -27z m-253 -525 c-140 -362 -156 -780 -44 -1131 14 -44 47 -127
      74 -183 l50 -104 -82 77 c-350 329 -876 602 -1343 696 l-60 12 112 23 c224 45
      440 122 673 240 223 113 398 229 575 383 39 34 71 61 72 61 1 0 -12 -33 -27
      -74z"/>
    </g>
    <g transform="translate(120,165) scale(0.0100000,-0.0100000) rotate(170)" stroke="none">
      <path d="M2123 4381 c-28 -26 -136 -87 -240 -159 -566 -391 -830 -534 -1460
      -791 -255 -103 -316 -133 -335 -160 -8 -11 -26 -23 -41 -26 -42 -11 -53 -31
      -31 -56 27 -30 83 -57 382 -180 598 -248 975 -458 1522 -848 220 -157 301
      -197 316 -156 8 20 -11 73 -50 138 l-33 55 35 -15 c34 -14 37 -14 54 7 26 32
      23 65 -32 340 -65 326 -101 600 -80 600 5 0 54 -7 108 -15 434 -64 1496 -100
      3732 -125 2218 -25 3439 -32 4315 -27 1391 10 1873 33 2290 113 153 29 201 43
      216 60 16 20 -43 32 -251 49 -260 22 -622 32 -1655 50 -3240 54 -6854 79
      -8070 56 -341 -6 -637 -14 -657 -18 l-38 -6 0 139 c0 152 9 272 41 524 12 91
      22 208 23 260 2 64 8 105 19 126 8 17 17 44 19 60 3 25 -1 29 -22 32 -14 1
      -48 -11 -77 -27z m-253 -525 c-140 -362 -156 -780 -44 -1131 14 -44 47 -127
      74 -183 l50 -104 -82 77 c-350 329 -876 602 -1343 696 l-60 12 112 23 c224 45
      440 122 673 240 223 113 398 229 575 383 39 34 71 61 72 61 1 0 -12 -33 -27
      -74z"/>
    </g>
  </g>
  <!-- Arrow HTTP -->
  <g transform="translate(660,160)" fill="#996666">
    <text x="-20" y="-30" class="smallb">high bandwidth</text>
    <text x="-10" y="0" class="smallb">high latency</text>
    <g transform="translate(110,0) scale(0.0100000,-0.0100000) rotate(180)" stroke="none">
      <path d="M2123 4381 c-28 -26 -136 -87 -240 -159 -566 -391 -830 -534 -1460
      -791 -255 -103 -316 -133 -335 -160 -8 -11 -26 -23 -41 -26 -42 -11 -53 -31
      -31 -56 27 -30 83 -57 382 -180 598 -248 975 -458 1522 -848 220 -157 301
      -197 316 -156 8 20 -11 73 -50 138 l-33 55 35 -15 c34 -14 37 -14 54 7 26 32
      23 65 -32 340 -65 326 -101 600 -80 600 5 0 54 -7 108 -15 434 -64 1496 -100
      3732 -125 2218 -25 3439 -32 4315 -27 1391 10 1873 33 2290 113 153 29 201 43
      216 60 16 20 -43 32 -251 49 -260 22 -622 32 -1655 50 -3240 54 -6854 79
      -8070 56 -341 -6 -637 -14 -657 -18 l-38 -6 0 139 c0 152 9 272 41 524 12 91
      22 208 23 260 2 64 8 105 19 126 8 17 17 44 19 60 3 25 -1 29 -22 32 -14 1
      -48 -11 -77 -27z m-253 -525 c-140 -362 -156 -780 -44 -1131 14 -44 47 -127
      74 -183 l50 -104 -82 77 c-350 329 -876 602 -1343 696 l-60 12 112 23 c224 45
      440 122 673 240 223 113 398 229 575 383 39 34 71 61 72 61 1 0 -12 -33 -27
      -74z"/>
    </g>
    <g transform="translate(110,45) scale(0.0100000,-0.0100000) rotate(180)" stroke="none">
      <path d="M2123 4381 c-28 -26 -136 -87 -240 -159 -566 -391 -830 -534 -1460
      -791 -255 -103 -316 -133 -335 -160 -8 -11 -26 -23 -41 -26 -42 -11 -53 -31
      -31 -56 27 -30 83 -57 382 -180 598 -248 975 -458 1522 -848 220 -157 301
      -197 316 -156 8 20 -11 73 -50 138 l-33 55 35 -15 c34 -14 37 -14 54 7 26 32
      23 65 -32 340 -65 326 -101 600 -80 600 5 0 54 -7 108 -15 434 -64 1496 -100
      3732 -125 2218 -25 3439 -32 4315 -27 1391 10 1873 33 2290 113 153 29 201 43
      216 60 16 20 -43 32 -251 49 -260 22 -622 32 -1655 50 -3240 54 -6854 79
      -8070 56 -341 -6 -637 -14 -657 -18 l-38 -6 0 139 c0 152 9 272 41 524 12 91
      22 208 23 260 2 64 8 105 19 126 8 17 17 44 19 60 3 25 -1 29 -22 32 -14 1
      -48 -11 -77 -27z m-253 -525 c-140 -362 -156 -780 -44 -1131 14 -44 47 -127
      74 -183 l50 -104 -82 77 c-350 329 -876 602 -1343 696 l-60 12 112 23 c224 45
      440 122 673 240 223 113 398 229 575 383 39 34 71 61 72 61 1 0 -12 -33 -27
      -74z"/>
    </g>
    <g transform="translate(110,90) scale(0.0100000,-0.0100000) rotate(180)" stroke="none">
      <path d="M2123 4381 c-28 -26 -136 -87 -240 -159 -566 -391 -830 -534 -1460
      -791 -255 -103 -316 -133 -335 -160 -8 -11 -26 -23 -41 -26 -42 -11 -53 -31
      -31 -56 27 -30 83 -57 382 -180 598 -248 975 -458 1522 -848 220 -157 301
      -197 316 -156 8 20 -11 73 -50 138 l-33 55 35 -15 c34 -14 37 -14 54 7 26 32
      23 65 -32 340 -65 326 -101 600 -80 600 5 0 54 -7 108 -15 434 -64 1496 -100
      3732 -125 2218 -25 3439 -32 4315 -27 1391 10 1873 33 2290 113 153 29 201 43
      216 60 16 20 -43 32 -251 49 -260 22 -622 32 -1655 50 -3240 54 -6854 79
      -8070 56 -341 -6 -637 -14 -657 -18 l-38 -6 0 139 c0 152 9 272 41 524 12 91
      22 208 23 260 2 64 8 105 19 126 8 17 17 44 19 60 3 25 -1 29 -22 32 -14 1
      -48 -11 -77 -27z m-253 -525 c-140 -362 -156 -780 -44 -1131 14 -44 47 -127
      74 -183 l50 -104 -82 77 c-350 329 -876 602 -1343 696 l-60 12 112 23 c224 45
      440 122 673 240 223 113 398 229 575 383 39 34 71 61 72 61 1 0 -12 -33 -27
      -74z"/>
    </g>    
  </g>
</svg>
