<svg width="1200" height="800" viewBox="0 0 1200 800" fill="none" xmlns="http://www.w3.org/2000/svg" version="1.2">
 <style>
    .small { font: normal 1.6em "Burst My Bubble"; }
    .smallb { font: bold 1.6em "Burst My Bubble"; }
    .medium { font: normal 2.2em "Burst My Bubble"; }
    .large { font: normal 2.5em "Burst My Bubble"; }
    .huge { font: normal 4em "Burst My Bubble"; }
  </style>
  <!-- C# Program -->
  <g transform="translate(50,50)">
    <rect x="0" y="0" width="620" height="370" stroke="#33AA44" stroke-width="3" stroke-dasharray="5 5" fill="#B4D6B3" fill-opacity="0.1"/>
    <rect x="25" y="30" width="160" height="130" stroke="#4782A0" stroke-width="3" fill="#6BB5C5" fill-opacity="0.25"/>
    <text x="55" y="75" class="large" fill="#4782A0">Sensors</text>
    <rect x="25" y="210" width="160" height="130" stroke="#4782A0" stroke-width="3" fill="#6BB5C5" fill-opacity="0.25"/>
    <text x="45" y="250" class="large" fill="#4782A0">Cameras</text>
    <g fill="#4782A0" transform="translate(80,90) scale(0.1,0.1)">
      <path d="m437.066 74.981c-5.857-5.858-15.355-5.858-21.213 0s-5.858 15.355 0 21.213c42.656 42.655 66.147 99.409 66.147 159.806s-23.491 117.151-66.147 159.806c-5.858 5.857-5.858 15.355 0 21.213 5.868 5.868 15.365 5.848 21.213 0 48.322-48.321 74.934-112.608 74.934-181.019s-26.612-132.698-74.934-181.019z"/>
      <path d="m391.646 120.4c-5.858-5.857-15.356-5.857-21.213 0-5.857 5.858-5.857 15.355 0 21.213 30.533 30.531 47.349 71.155 47.349 114.387s-16.815 83.855-47.349 114.387c-5.858 5.858-5.858 15.355 0 21.213 5.856 5.856 15.353 5.859 21.213 0 36.2-36.198 56.136-84.355 56.136-135.601s-19.937-99.402-56.136-135.599z"/>
      <path d="m346.193 165.852c-5.858-5.857-15.356-5.857-21.213 0-5.858 5.858-5.857 15.356 0 21.213 18.4 18.398 28.533 42.88 28.533 68.934s-10.133 50.536-28.533 68.934c-5.858 5.857-5.858 15.355 0 21.213 5.857 5.857 15.354 5.859 21.213 0 24.066-24.065 37.32-56.08 37.32-90.148s-13.254-66.081-37.32-90.146z"/>
      <path d="m30 256c0-60.397 23.491-117.151 66.147-159.806 5.858-5.857 5.858-15.355 0-21.213-5.857-5.857-15.354-5.858-21.213 0-48.322 48.321-74.934 112.608-74.934 181.019s26.612 132.698 74.934 181.019c5.856 5.857 15.355 5.859 21.213 0 5.858-5.858 5.858-15.355 0-21.213-42.656-42.655-66.147-99.409-66.147-159.806z"/>
      <path d="m94.219 256c0-43.232 16.815-83.855 47.349-114.387 5.858-5.858 5.858-15.355 0-21.213-5.857-5.858-15.355-5.857-21.213 0-36.2 36.197-56.136 84.355-56.136 135.6s19.936 99.403 56.136 135.601c5.866 5.865 15.363 5.85 21.213 0 5.857-5.858 5.857-15.355 0-21.213-30.534-30.532-47.349-71.156-47.349-114.388z"/>
      <path d="m187.021 165.853c-5.857-5.858-15.355-5.858-21.213 0-24.066 24.065-37.32 56.08-37.32 90.148s13.254 66.083 37.32 90.148c5.866 5.865 15.363 5.85 21.213 0 5.858-5.858 5.857-15.356 0-21.213-18.4-18.398-28.533-42.88-28.533-68.934s10.133-50.536 28.533-68.934c5.857-5.859 5.857-15.357 0-21.215z"/>
      <path d="m256 192.8c-34.849 0-63.2 28.352-63.2 63.2s28.352 63.2 63.2 63.2 63.2-28.352 63.2-63.2-28.351-63.2-63.2-63.2z"/>
    </g>
    <g fill="#4782A0" transform="translate(80,265) scale(0.1,0.1)">
      <path d="m504.928 233.267c-4.397-2.739-9.897-3.013-14.548-.727l-100.38 49.367v-15.907c0-23.447-14.754-43.503-35.46-51.401 21.734-19.251 35.46-47.35 35.46-78.599 0-57.897-47.103-105-105-105-38.151 0-71.612 20.455-90 50.971-18.388-30.516-51.849-50.971-90-50.971-57.897 0-105 47.103-105 105 0 31.249 13.726 59.348 35.46 78.599-20.706 7.898-35.46 27.954-35.46 51.401v160c0 30.327 24.673 55 55 55h280c30.327 0 55-24.673 55-55v-15.907l100.38 49.367c2.094 1.03 4.359 1.54 6.619 1.54 2.76 0 5.511-.761 7.929-2.267 4.398-2.738 7.072-7.552 7.072-12.733v-200c0-5.181-2.674-9.995-7.072-12.733zm-219.928-172.267c41.355 0 75 33.645 75 75s-33.645 75-75 75-75-33.645-75-75 33.645-75 75-75zm-73.404 150h-33.192c6.377-6.242 11.965-13.286 16.596-20.971 4.631 7.685 10.219 14.729 16.596 20.971zm-181.596-75c0-41.355 33.645-75 75-75s75 33.645 75 75-33.645 75-75 75-75-33.645-75-75zm330 290c0 13.785-11.215 25-25 25h-280c-13.785 0-25-11.215-25-25v-160c0-13.785 11.215-25 25-25h280c13.785 0 25 11.215 25 25v40 80zm122-4.093-92-45.246v-61.322l92-45.246z"/>
      <path d="m315 271h-110c-8.284 0-15 6.716-15 15v90c0 8.284 6.716 15 15 15h110c8.284 0 15-6.716 15-15v-90c0-8.284-6.716-15-15-15zm-15 90h-80v-60h80z"/>
      <path d="m145 391h-70c-8.284 0-15 6.716-15 15s6.716 15 15 15h70c8.284 0 15-6.716 15-15s-6.716-15-15-15z"/>
      <path d="m145 331h-70c-8.284 0-15 6.716-15 15s6.716 15 15 15h70c8.284 0 15-6.716 15-15s-6.716-15-15-15z"/>
    </g>
  </g>
  <!-- Engine -->
  <g transform="translate(450,70)">
    <rect x="0" y="0" width="200" height="330" stroke="#33AA44" stroke-width="3" stroke-dasharray="5 5" fill="#B4D6B3" fill-opacity="0.1"/>
    <rect x="20" y="110" width="160" height="50"  stroke="#33AA44" stroke-width="3" fill="#B4D6B3" fill-opacity="0.25"/>
    <rect x="20" y="170" width="160" height="50"  stroke="#33AA44" stroke-width="3" fill="#B4D6B3" fill-opacity="0.25"/>
    <rect x="20" y="260" width="160" height="50"  stroke="#33AA44" stroke-width="3" fill="#B4D6B3" fill-opacity="0.25"/>
    <text x="70" y="40" class="large" fill="#33AA44">Edge</text>
    <text x="55" y="80" class="large" fill="#33AA44">Cluster</text>
    <text x="60" y="140" class="medium" fill="#33AA44">Edge 1</text>
    <text x="60" y="205" class="medium" fill="#33AA44">Edge 2</text>
    <text x="55" y="295" class="medium" fill="#33AA44">Edge N</text>
  </g>
  <!-- Cloud -->
  <g transform="translate(890,100)">
    <g transform="translate(0,-20) scale(4,4)">
    <path style="fill:#996666;" d="M48.077,25.553c0.021-0.304,0.03-0.604,0.03-0.897c0-8.459-6.882-15.341-15.34-15.341
        c-6.084,0-11.598,3.611-14.032,9.174c-0.029,0.042-0.123,0.106-0.161,0.117c-3.776,0.395-7.116,2.797-8.713,6.266
        c-0.046,0.088-0.227,0.236-0.316,0.263C3.925,26.369,0,31.231,0,36.96c0,6.692,5.341,11.935,12.159,11.935h34.448
        c6.397,0,11.603-5.307,11.603-11.83C58.21,31.164,53.783,26.278,48.077,25.553z M46.607,45.894H12.159
        C7.023,45.894,3,41.97,3,36.959c0-4.308,2.956-7.966,7.187-8.895c1.001-0.219,1.964-0.996,2.397-1.935
        c1.158-2.515,3.573-4.255,6.302-4.54c1.089-0.113,2.151-0.883,2.585-1.873c1.97-4.497,6.403-7.402,11.297-7.402
        c6.805,0,12.34,5.536,12.34,12.341c0,0.378-0.021,0.773-0.064,1.176c-0.102,0.951-0.169,1.579,0.334,2.137
        c0.284,0.316,0.699,0.501,1.124,0.501c0.028-0.014,0.108-0.004,0.162-0.01c4.718,0.031,8.547,3.878,8.547,8.603
        C55.21,41.85,51.27,45.894,46.607,45.894z"/>
    </g>
    <text x="70" y="220" class="large" fill="#996666">Cloud</text>
  </g>
  <!-- Arrow gRPC -->
  <g transform="translate(280,150)" fill="#33AA44">
    <text x="0" y="0" class="smallb">high bandwidth</text>
    <text x="-5" y="30" class="smallb">sub-ms latency</text>
    <g transform="translate(130,20) scale(0.0100000,-0.0100000) rotate(180)" stroke="none">
      <path d="M2123 4381 c-28 -26 -136 -87 -240 -159 -566 -391 -830 -534 -1460
      -791 -255 -103 -316 -133 -335 -160 -8 -11 -26 -23 -41 -26 -42 -11 -53 -31
      -31 -56 27 -30 83 -57 382 -180 598 -248 975 -458 1522 -848 220 -157 301
      -197 316 -156 8 20 -11 73 -50 138 l-33 55 35 -15 c34 -14 37 -14 54 7 26 32
      23 65 -32 340 -65 326 -101 600 -80 600 5 0 54 -7 108 -15 434 -64 1496 -100
      3732 -125 2218 -25 3439 -32 4315 -27 1391 10 1873 33 2290 113 153 29 201 43
      216 60 16 20 -43 32 -251 49 -260 22 -622 32 -1655 50 -3240 54 -6854 79
      -8070 56 -341 -6 -637 -14 -657 -18 l-38 -6 0 139 c0 152 9 272 41 524 12 91
      22 208 23 260 2 64 8 105 19 126 8 17 17 44 19 60 3 25 -1 29 -22 32 -14 1
      -48 -11 -77 -27z m-253 -525 c-140 -362 -156 -780 -44 -1131 14 -44 47 -127
      74 -183 l50 -104 -82 77 c-350 329 -876 602 -1343 696 l-60 12 112 23 c224 45
      440 122 673 240 223 113 398 229 575 383 39 34 71 61 72 61 1 0 -12 -33 -27
      -74z"/>
    </g>
    <g transform="translate(130,65) scale(0.0100000,-0.0100000) rotate(180)" stroke="none">
      <path d="M2123 4381 c-28 -26 -136 -87 -240 -159 -566 -391 -830 -534 -1460
      -791 -255 -103 -316 -133 -335 -160 -8 -11 -26 -23 -41 -26 -42 -11 -53 -31
      -31 -56 27 -30 83 -57 382 -180 598 -248 975 -458 1522 -848 220 -157 301
      -197 316 -156 8 20 -11 73 -50 138 l-33 55 35 -15 c34 -14 37 -14 54 7 26 32
      23 65 -32 340 -65 326 -101 600 -80 600 5 0 54 -7 108 -15 434 -64 1496 -100
      3732 -125 2218 -25 3439 -32 4315 -27 1391 10 1873 33 2290 113 153 29 201 43
      216 60 16 20 -43 32 -251 49 -260 22 -622 32 -1655 50 -3240 54 -6854 79
      -8070 56 -341 -6 -637 -14 -657 -18 l-38 -6 0 139 c0 152 9 272 41 524 12 91
      22 208 23 260 2 64 8 105 19 126 8 17 17 44 19 60 3 25 -1 29 -22 32 -14 1
      -48 -11 -77 -27z m-253 -525 c-140 -362 -156 -780 -44 -1131 14 -44 47 -127
      74 -183 l50 -104 -82 77 c-350 329 -876 602 -1343 696 l-60 12 112 23 c224 45
      440 122 673 240 223 113 398 229 575 383 39 34 71 61 72 61 1 0 -12 -33 -27
      -74z"/>
    </g>
    <g transform="translate(130,110) scale(0.0100000,-0.0100000) rotate(180)" stroke="none">
      <path d="M2123 4381 c-28 -26 -136 -87 -240 -159 -566 -391 -830 -534 -1460
      -791 -255 -103 -316 -133 -335 -160 -8 -11 -26 -23 -41 -26 -42 -11 -53 -31
      -31 -56 27 -30 83 -57 382 -180 598 -248 975 -458 1522 -848 220 -157 301
      -197 316 -156 8 20 -11 73 -50 138 l-33 55 35 -15 c34 -14 37 -14 54 7 26 32
      23 65 -32 340 -65 326 -101 600 -80 600 5 0 54 -7 108 -15 434 -64 1496 -100
      3732 -125 2218 -25 3439 -32 4315 -27 1391 10 1873 33 2290 113 153 29 201 43
      216 60 16 20 -43 32 -251 49 -260 22 -622 32 -1655 50 -3240 54 -6854 79
      -8070 56 -341 -6 -637 -14 -657 -18 l-38 -6 0 139 c0 152 9 272 41 524 12 91
      22 208 23 260 2 64 8 105 19 126 8 17 17 44 19 60 3 25 -1 29 -22 32 -14 1
      -48 -11 -77 -27z m-253 -525 c-140 -362 -156 -780 -44 -1131 14 -44 47 -127
      74 -183 l50 -104 -82 77 c-350 329 -876 602 -1343 696 l-60 12 112 23 c224 45
      440 122 673 240 223 113 398 229 575 383 39 34 71 61 72 61 1 0 -12 -33 -27
      -74z"/>
    </g>
  </g>
  <!-- Arrow HTTP -->
  <g transform="translate(710,200)" fill="#996666">
    <text x="-5" y="-20" class="smallb">limited bandwidth</text>
    <text x="15" y="10" class="smallb">intermittent</text>
    <g transform="translate(130,0) scale(0.0100000,-0.0100000) rotate(180)" stroke="none">
      <path d="M2123 4381 c-28 -26 -136 -87 -240 -159 -566 -391 -830 -534 -1460
      -791 -255 -103 -316 -133 -335 -160 -8 -11 -26 -23 -41 -26 -42 -11 -53 -31
      -31 -56 27 -30 83 -57 382 -180 598 -248 975 -458 1522 -848 220 -157 301
      -197 316 -156 8 20 -11 73 -50 138 l-33 55 35 -15 c34 -14 37 -14 54 7 26 32
      23 65 -32 340 -65 326 -101 600 -80 600 5 0 54 -7 108 -15 434 -64 1496 -100
      3732 -125 2218 -25 3439 -32 4315 -27 1391 10 1873 33 2290 113 153 29 201 43
      216 60 16 20 -43 32 -251 49 -260 22 -622 32 -1655 50 -3240 54 -6854 79
      -8070 56 -341 -6 -637 -14 -657 -18 l-38 -6 0 139 c0 152 9 272 41 524 12 91
      22 208 23 260 2 64 8 105 19 126 8 17 17 44 19 60 3 25 -1 29 -22 32 -14 1
      -48 -11 -77 -27z m-253 -525 c-140 -362 -156 -780 -44 -1131 14 -44 47 -127
      74 -183 l50 -104 -82 77 c-350 329 -876 602 -1343 696 l-60 12 112 23 c224 45
      440 122 673 240 223 113 398 229 575 383 39 34 71 61 72 61 1 0 -12 -33 -27
      -74z"/>
    </g>
  </g>
</svg>
