<svg width="1100" height="700" viewBox="0 0 1100 700" fill="none" xmlns="http://www.w3.org/2000/svg" version="1.2">
 <style>
    .small { font: normal 1.6em "Burst My Bubble"; }
    .smallb { font: bold 1.6em "Burst My Bubble"; }
    .medium { font: normal 2.2em "Burst My Bubble"; }
    .large { font: normal 2.5em "Burst My Bubble"; }
    .huge { font: normal 4em "Burst My Bubble"; }
  </style>
  <!-- Workers -->
  <g transform="translate(40,80)">
    <circle cx="20" cy="90" r="30" stroke="#33AA44" stroke-width="3" fill="#B4D6B3" />
    <circle cx="50" cy="15" r="30" stroke="#33AA44" stroke-width="3" fill="#B4D6B3" />
    <circle cx="130" cy="5" r="30" stroke="#33AA44" stroke-width="3" fill="#B4D6B3" />
    <circle cx="100" cy="70" r="30" stroke="#33AA44" stroke-width="3" fill="#B4D6B3" />
    <circle cx="170" cy="80" r="30" stroke="#33AA44" stroke-width="3" fill="#B4D6B3" />
    <text x="30" y="180" class="medium" fill="#33AA44">Workers</text>
  </g>
  <!-- Service -->
  <g transform="translate(440,50)">
    <rect x="20" y="20" width="160" height="130"  stroke="#67B2C7" stroke-width="3" fill="#6BB5C5" fill-opacity="0.25"/>
    <text x="40" y="190" class="medium" fill="#4782A0">Temporal</text>
    <text x="55" y="230" class="medium" fill="#4782A0">Service</text>
  </g>
  <!-- Data Store -->
  <g transform="translate(840,65)">
    <path d="M256,0C136.384,0,42.667,42.176,42.667,96v320c0,53.824,93.717,96,213.333,96s213.333-42.176,213.333-96V96
        C469.333,42.176,375.616,0,256,0z M448,416c0,35.307-78.848,74.667-192,74.667S64,451.307,64,416v-64.384
        c34.197,32.043,106.347,53.717,192,53.717s157.803-21.675,192-53.717V416z M448,309.333C448,344.64,369.152,384,256,384
        S64,344.64,64,309.333v-64.384c34.197,32.043,106.347,53.717,192,53.717s157.803-21.675,192-53.717V309.333z M448,202.667
        c0,35.307-78.848,74.667-192,74.667s-192-39.36-192-74.667v-64.384C98.197,170.325,170.347,192,256,192s157.803-21.675,192-53.717
        V202.667z M256,170.667c-113.152,0-192-39.36-192-74.667c0-35.307,78.848-74.667,192-74.667S448,60.693,448,96
        C448,131.307,369.152,170.667,256,170.667z"
        fill="#996666" stroke="#996666" transform="scale(0.25 0.25)" />
    <text x="-10" y="190" class="large" fill="#996666">Data Store</text>
  </g>
  <!-- Arrow gRPC -->
  <g transform="translate(280,70)" fill="#67B2C7">
    <g transform="translate(130,0) scale(0.0100000,-0.0100000) rotate(180)" stroke="none">
      <path d="M2123 4381 c-28 -26 -136 -87 -240 -159 -566 -391 -830 -534 -1460
      -791 -255 -103 -316 -133 -335 -160 -8 -11 -26 -23 -41 -26 -42 -11 -53 -31
      -31 -56 27 -30 83 -57 382 -180 598 -248 975 -458 1522 -848 220 -157 301
      -197 316 -156 8 20 -11 73 -50 138 l-33 55 35 -15 c34 -14 37 -14 54 7 26 32
      23 65 -32 340 -65 326 -101 600 -80 600 5 0 54 -7 108 -15 434 -64 1496 -100
      3732 -125 2218 -25 3439 -32 4315 -27 1391 10 1873 33 2290 113 153 29 201 43
      216 60 16 20 -43 32 -251 49 -260 22 -622 32 -1655 50 -3240 54 -6854 79
      -8070 56 -341 -6 -637 -14 -657 -18 l-38 -6 0 139 c0 152 9 272 41 524 12 91
      22 208 23 260 2 64 8 105 19 126 8 17 17 44 19 60 3 25 -1 29 -22 32 -14 1
      -48 -11 -77 -27z m-253 -525 c-140 -362 -156 -780 -44 -1131 14 -44 47 -127
      74 -183 l50 -104 -82 77 c-350 329 -876 602 -1343 696 l-60 12 112 23 c224 45
      440 122 673 240 223 113 398 229 575 383 39 34 71 61 72 61 1 0 -12 -33 -27
      -74z"/>
    </g>
    <text x="40" y="70" class="small">gRPC</text>
    <g transform="translate(0,130) scale(0.0100000,-0.0100000) rotate(0)" stroke="none">
      <path d="M2123 4381 c-28 -26 -136 -87 -240 -159 -566 -391 -830 -534 -1460
      -791 -255 -103 -316 -133 -335 -160 -8 -11 -26 -23 -41 -26 -42 -11 -53 -31
      -31 -56 27 -30 83 -57 382 -180 598 -248 975 -458 1522 -848 220 -157 301
      -197 316 -156 8 20 -11 73 -50 138 l-33 55 35 -15 c34 -14 37 -14 54 7 26 32
      23 65 -32 340 -65 326 -101 600 -80 600 5 0 54 -7 108 -15 434 -64 1496 -100
      3732 -125 2218 -25 3439 -32 4315 -27 1391 10 1873 33 2290 113 153 29 201 43
      216 60 16 20 -43 32 -251 49 -260 22 -622 32 -1655 50 -3240 54 -6854 79
      -8070 56 -341 -6 -637 -14 -657 -18 l-38 -6 0 139 c0 152 9 272 41 524 12 91
      22 208 23 260 2 64 8 105 19 126 8 17 17 44 19 60 3 25 -1 29 -22 32 -14 1
      -48 -11 -77 -27z m-253 -525 c-140 -362 -156 -780 -44 -1131 14 -44 47 -127
      74 -183 l50 -104 -82 77 c-350 329 -876 602 -1343 696 l-60 12 112 23 c224 45
      440 122 673 240 223 113 398 229 575 383 39 34 71 61 72 61 1 0 -12 -33 -27
      -74z"/>
    </g>
  </g>
  <!-- Arrow DB -->
  <g transform="translate(670,70)" fill="#996666">
    <g transform="translate(130,0) scale(0.0100000,-0.0100000) rotate(180)" stroke="none">
      <path d="M2123 4381 c-28 -26 -136 -87 -240 -159 -566 -391 -830 -534 -1460
      -791 -255 -103 -316 -133 -335 -160 -8 -11 -26 -23 -41 -26 -42 -11 -53 -31
      -31 -56 27 -30 83 -57 382 -180 598 -248 975 -458 1522 -848 220 -157 301
      -197 316 -156 8 20 -11 73 -50 138 l-33 55 35 -15 c34 -14 37 -14 54 7 26 32
      23 65 -32 340 -65 326 -101 600 -80 600 5 0 54 -7 108 -15 434 -64 1496 -100
      3732 -125 2218 -25 3439 -32 4315 -27 1391 10 1873 33 2290 113 153 29 201 43
      216 60 16 20 -43 32 -251 49 -260 22 -622 32 -1655 50 -3240 54 -6854 79
      -8070 56 -341 -6 -637 -14 -657 -18 l-38 -6 0 139 c0 152 9 272 41 524 12 91
      22 208 23 260 2 64 8 105 19 126 8 17 17 44 19 60 3 25 -1 29 -22 32 -14 1
      -48 -11 -77 -27z m-253 -525 c-140 -362 -156 -780 -44 -1131 14 -44 47 -127
      74 -183 l50 -104 -82 77 c-350 329 -876 602 -1343 696 l-60 12 112 23 c224 45
      440 122 673 240 223 113 398 229 575 383 39 34 71 61 72 61 1 0 -12 -33 -27
      -74z"/>
    </g>
    <g transform="translate(0,130) scale(0.0100000,-0.0100000) rotate(0)" stroke="none">
      <path d="M2123 4381 c-28 -26 -136 -87 -240 -159 -566 -391 -830 -534 -1460
      -791 -255 -103 -316 -133 -335 -160 -8 -11 -26 -23 -41 -26 -42 -11 -53 -31
      -31 -56 27 -30 83 -57 382 -180 598 -248 975 -458 1522 -848 220 -157 301
      -197 316 -156 8 20 -11 73 -50 138 l-33 55 35 -15 c34 -14 37 -14 54 7 26 32
      23 65 -32 340 -65 326 -101 600 -80 600 5 0 54 -7 108 -15 434 -64 1496 -100
      3732 -125 2218 -25 3439 -32 4315 -27 1391 10 1873 33 2290 113 153 29 201 43
      216 60 16 20 -43 32 -251 49 -260 22 -622 32 -1655 50 -3240 54 -6854 79
      -8070 56 -341 -6 -637 -14 -657 -18 l-38 -6 0 139 c0 152 9 272 41 524 12 91
      22 208 23 260 2 64 8 105 19 126 8 17 17 44 19 60 3 25 -1 29 -22 32 -14 1
      -48 -11 -77 -27z m-253 -525 c-140 -362 -156 -780 -44 -1131 14 -44 47 -127
      74 -183 l50 -104 -82 77 c-350 329 -876 602 -1343 696 l-60 12 112 23 c224 45
      440 122 673 240 223 113 398 229 575 383 39 34 71 61 72 61 1 0 -12 -33 -27
      -74z"/>
    </g>
  </g>
</svg>
