<?xml version="1.0" encoding="utf-8"?>
<!-- Generator: Adobe Illustrator 24.0.0, SVG Export Plug-In . SVG Version: 6.00 Build 0)  -->
<svg version="1.1" id="Layer_4_copy" xmlns="http://www.w3.org/2000/svg" xmlns:xlink="http://www.w3.org/1999/xlink" x="0px"
	 y="0px" viewBox="0 0 2400 1200" style="enable-background:new 0 0 2400 1200;" xml:space="preserve">
<style type="text/css">
	.st0{fill:#141414;}
</style>
<g>
	<g>
		<g>
			<path class="st0" d="M861.38,521.22h57.84v151.44h17.28V521.22h58.08v-15.84h-133.2V521.22z M1050.02,552.42
				c-34.32,0-52.56,28.32-52.56,61.68c0,33.6,18.48,60.48,54.48,60.48c18.24,0,31.92-5.28,45.84-19.92l-11.52-10.08
				c-10.8,11.52-21.12,14.88-34.08,14.88c-23.28,0-37.68-15.6-38.16-41.52h86.64c0.48-2.88,0.72-6.96,0.72-10.32
				C1101.39,580.74,1086.27,552.42,1050.02,552.42z M1014.02,604.02c1.44-20.88,14.64-37.68,36-37.68
				c21.84,0,34.08,14.64,35.28,33.84c0,2.16,0.24,3.36,0.24,3.84H1014.02z M1264.23,552.42c-18,0-31.2,7.68-38.88,22.8
				c-6-15.6-18.24-22.8-34.8-22.8c-13.2,0-25.2,4.56-32.64,16.32v-14.4h-16.08l0.24,118.32h16.56v-56.88
				c0-26.88,6.48-48.72,29.52-48.72c20.64,0,26.64,17.52,26.64,37.2v68.4h16.56v-56.88c0-26.64,6.48-48.72,30.48-48.72
				c25.92,0,25.92,26.16,25.92,36.24v69.36h16.56v-73.92C1304.31,571.14,1292.55,552.42,1264.23,552.42z M1407.74,552.18
				c-16.8,0-30.24,6.48-39.12,18v-15.84h-16.56v167.28h16.56v-64.8c8.64,11.04,21.84,17.76,39.12,17.76
				c34.56,0,52.56-25.92,52.56-61.2C1460.31,576.42,1440.63,552.18,1407.74,552.18z M1405.34,659.94
				c-24.96,0-38.16-19.68-38.16-46.56c0-28.08,14.4-46.56,38.16-46.56c24,0,38.4,18.48,38.4,46.56
				C1443.75,640.26,1430.55,659.94,1405.34,659.94z M1548.38,552.42c-33.84,0-56.64,25.92-56.64,60.96c0,35.04,22.8,61.2,56.64,61.2
				c33.84,0,56.88-26.4,56.88-61.2C1605.27,578.34,1581.99,552.42,1548.38,552.42z M1548.38,659.94c-25.2,0-40.08-19.68-40.08-46.56
				c0-26.64,14.64-46.32,40.08-46.32c25.2,0,40.32,19.44,40.32,46.32C1588.71,639.78,1573.82,659.94,1548.38,659.94z M1662.62,572.1
				v-17.76h-16.56v118.32h16.56v-66c0-25.68,13.44-39.36,31.68-39.36c5.04,0,10.08,1.2,15.6,3.6l8.16-13.44
				c-6.48-3.6-13.2-5.04-20.4-5.04C1685.66,552.42,1671.26,556.5,1662.62,572.1z M1789.1,552.42c-20.16,0-35.52,7.68-48.24,24.24
				l12,10.08c9.6-13.2,21.12-19.68,36-19.68c19.92,0,30.72,11.28,30.72,31.92v5.52h-24.24c-23.28,0-36,2.16-44.88,7.2
				c-8.88,5.52-13.68,14.64-13.68,26.64c0,22.8,15.12,36.24,40.8,36.24c18.72,0,33.12-6.96,42.48-20.16l0.96,18.24h15.12v-73.68
				C1836.15,569.46,1818.86,552.42,1789.1,552.42z M1819.58,619.62c0,25.2-14.4,41.28-37.2,41.28c-17.76,0-29.04-8.4-29.04-21.6
				c0-6.72,2.16-12,6.48-15.36c5.76-4.56,15.12-6,36.96-6h22.8V619.62z M1899.63,658.26V505.44h-15.48v153.19
				c0,8.14,6.78,14.77,15.12,14.77h26.69v-15.12H1899.63z"/>
		</g>
	</g>
	<path class="st0" d="M618.76,524.08c-9.23-69.17-32.6-126.92-68.5-126.92c-35.89,0-59.26,57.74-68.5,126.92
		c-69.17,9.23-126.92,32.6-126.92,68.5c0,35.89,57.75,59.26,126.92,68.5c9.23,69.16,32.6,126.92,68.5,126.92
		c35.89,0,59.26-57.75,68.5-126.92c69.17-9.24,126.92-32.6,126.92-68.5C745.68,556.68,687.92,533.31,618.76,524.08z M479.51,640.92
		c-66.25-9.57-104.88-31.47-104.88-48.35c0-16.88,38.64-38.78,104.88-48.35c-1.46,15.95-2.22,32.23-2.22,48.35
		C477.29,608.69,478.05,624.99,479.51,640.92z M550.27,416.94c16.88,0,38.78,38.64,48.35,104.88c-15.94-1.46-32.23-2.22-48.35-2.22
		c-16.12,0-32.41,0.76-48.35,2.22C511.49,455.57,533.39,416.94,550.27,416.94z M621.02,640.92c-3.26,0.48-16.64,2.04-20.02,2.38
		c-0.33,3.39-1.91,16.76-2.38,20.02c-9.57,66.25-31.47,104.89-48.35,104.89c-16.88,0-38.78-38.64-48.35-104.89
		c-0.47-3.26-2.05-16.64-2.38-20.02c-1.54-15.7-2.47-32.57-2.47-50.73c0-18.15,0.93-35.02,2.47-50.74
		c15.7-1.54,32.57-2.47,50.73-2.47c18.15,0,35.02,0.93,50.73,2.47c3.39,0.33,16.76,1.91,20.02,2.38
		c66.25,9.57,104.9,31.48,104.9,48.35C725.91,609.43,687.27,631.35,621.02,640.92z"/>
</g>
</svg>
