<svg width="1500" height="700" viewBox="0 0 1500 700" fill="none" xmlns="http://www.w3.org/2000/svg" version="1.2">
 <style>
    .small { font: normal 1.6em "Burst My Bubble"; }
    .smallb { font: bold 1.8em "Burst My Bubble"; }
    .medium { font: normal 2.2em "Burst My Bubble"; }
    .large { font: normal 3em "Burst My Bubble"; }
  </style>

  <g transform="translate(100,110)">
    <circle cx="120" cy="90" r="80" stroke="#33AA44" stroke-width="3" fill="#B4D6B3" />
    <text x="60" y="250" class="large" fill="#33AA44">Worker</text>

    <g transform="translate(380,60)" fill="#67B2C7">
      <g transform="scale(0.012,-0.01) rotate(180)" stroke="none">
        <path d="M2123 4381 c-28 -26 -136 -87 -240 -159 -566 -391 -830 -534 -1460
        -791 -255 -103 -316 -133 -335 -160 -8 -11 -26 -23 -41 -26 -42 -11 -53 -31
        -31 -56 27 -30 83 -57 382 -180 598 -248 975 -458 1522 -848 220 -157 301
        -197 316 -156 8 20 -11 73 -50 138 l-33 55 35 -15 c34 -14 37 -14 54 7 26 32
        23 65 -32 340 -65 326 -101 600 -80 600 5 0 54 -7 108 -15 434 -64 1496 -100
        3732 -125 2218 -25 3439 -32 4315 -27 1391 10 1873 33 2290 113 153 29 201 43
        216 60 16 20 -43 32 -251 49 -260 22 -622 32 -1655 50 -3240 54 -6854 79
        -8070 56 -341 -6 -637 -14 -657 -18 l-38 -6 0 139 c0 152 9 272 41 524 12 91
        22 208 23 260 2 64 8 105 19 126 8 17 17 44 19 60 3 25 -1 29 -22 32 -14 1
        -48 -11 -77 -27z m-253 -525 c-140 -362 -156 -780 -44 -1131 14 -44 47 -127
        74 -183 l50 -104 -82 77 c-350 329 -876 602 -1343 696 l-60 12 112 23 c224 45
        440 122 673 240 223 113 398 229 575 383 39 34 71 61 72 61 1 0 -12 -33 -27
        -74z"/>
      </g>
    </g>
    <text x="270" y="60" class="medium" fill="#4782A0">gRPC</text>
  </g>

  <g transform="translate(500,80)">
    <rect x="20" y="20" width="300" height="200" stroke="#67B2C7" stroke-width="3" fill="#6BB5C5" fill-opacity="0.25"/>
    <rect x="5" y="50" width="90" height="140" stroke="#67B2C7" stroke-width="3" fill="#6BB5C5" fill-opacity="0.25"/>
    <text x="-160" y="60" class="smallb" fill="#4782A0" transform="rotate(-90)">Frontend</text>
    <rect x="150" y="50" width="120" height="60" stroke="#67B2C7" stroke-width="3" fill="#6BB5C5" fill-opacity="0.25"/>
    <text x="168" y="87" class="smallb" fill="#4782A0">Matching</text>
    <rect x="150" y="130" width="120" height="60" stroke="#67B2C7" stroke-width="3" fill="#6BB5C5" fill-opacity="0.25"/>
    <text x="175" y="167" class="smallb" fill="#4782A0">History</text>

    <text x="90" y="280" class="large" fill="#4782A0">Temporal</text>
    <text x="115" y="325" class="large" fill="#4782A0">Service</text>
    </g>
</svg>
