<svg width="1550" height="600" viewBox="0 0 1550 600" fill="none" xmlns="http://www.w3.org/2000/svg">
  <style>
      .small { font-size: 24px; font-family: BlinkMacSystemFont; }
      .smallb { font-size: 30px; font-family: BlinkMacSystemFont; font-weight: bold }
      .medium { font-size: 32px; font-family: BlinkMacSystemFont }
  </style>

  <polyline fill="none" stroke="#aaaaaa" stroke-width="2" stroke-dasharray="4,2" points="260,502 960,502" />

  <polygon fill="#5C3FE9" stroke="#3C2AE8" stroke-width="2" points="360,500 420,500 420,400 360,400" />
  <polygon fill="#4E2468" stroke="#2E1458" stroke-width="2" points="460,500 520,500 520,310 460,311" />
  <polygon fill="#5C3FE9" stroke="#3C2AE8" stroke-width="2" points="700,500 760,500 760,400 700,400" />
  <polygon fill="#4E2468" stroke="#2E1458" stroke-width="2" points="800,500 860,500 860,305 800,305" />

  <text x="365" y="380" class="small" fill="#666666">469</text>
  <text x="460" y="285" class="smallb" fill="#666666">890</text>
  <text x="700" y="380" class="small" fill="#666666">6,991</text>
  <text x="785" y="279" class="smallb" fill="#666666">13,627</text>

  <text x="363" y="550" class="medium" fill="#666666">Resources</text>
  <text x="708" y="550" class="medium" fill="#666666">Properties</text>

  <polygon fill="#5C3FE9" stroke="#3C2AE8" stroke-width="2" points="1100,300 1160,300 1160,320 1100,320" />
  <polygon fill="#4E2468" stroke="#2E1458" stroke-width="2" points="1100,340 1160,340 1160,360 1100,360" />
  <text x="1175" y="317" class="small" fill="#666666">Azure</text>
  <text x="1175" y="357" class="small" fill="#666666">Azure NextGen</text>
</svg>