<svg width="1441" height="715" viewBox="0 0 1441 715" fill="none" xmlns="http://www.w3.org/2000/svg">
  <style>
      .small { font-size: 35px; font-family: Burst My Bubble; }
      .medium { font-size: 42px; font-family: Burst My Bubble; }
  </style>

  <polygon fill="#F9CDAC" stroke="#D54D88" stroke-width="2" points="300,130 600,130 600,220 300,220" />
  <polygon fill="#F9CDAC" stroke="#D54D88" stroke-width="2" points="700,130 1000,130 1000,220 700,220" />

  <polygon fill="#EA708E" stroke="#63218F" stroke-width="2" points="400,280 750,280 750,370 400,370" />
  <polygon fill="#EA708E" stroke-width="0" points="900,280 1050,280 1050,370 900,370" />
  <polyline stroke="#63218F" stroke-width="2" points="1050,370 900,370 900,280 1050,280" />
  <polyline stroke="#63218F" stroke-width="2" stroke-dasharray="8,8" points="1049,370 1049,280" />

  <polygon fill="#A62C99" stroke="#2D0F41" stroke-width="2" points="500,430 800,430 800,520 500,520" />

  <polyline fill="none" stroke="#aaaaaa" stroke-width="2" stroke-dasharray="4,2" points="200,100 1050,100" />
  <polyline fill="none" stroke="#aaaaaa" stroke-width="2" stroke-dasharray="4,2" points="200,250 1050,250" />
  <polyline fill="none" stroke="#aaaaaa" stroke-width="2" stroke-dasharray="4,2" points="200,400 1050,400" />
  <polyline fill="none" stroke="#aaaaaa" stroke-width="2" stroke-dasharray="4,2" points="200,550 1050,550" />

  <text x="600" y="590" class="small" fill="#666666">time</text>
  <text x="40" y="180" class="medium" fill="#D54D88">Worker A</text>
  <text x="40" y="330" class="medium" fill="#63218F">Worker B</text>
  <text x="40" y="480" class="medium" fill="#2D0F41">Worker C</text>
</svg>