<svg width="1441" height="715" viewBox="0 0 1441 715" fill="none" xmlns="http://www.w3.org/2000/svg">
  <style>
      .small { font-size: 35px; font-family: Burst My Bubble; }
      .medium { font-size: 42px; font-family: Burst My Bubble; }
  </style>

  <polygon
     fill="#EE8695"
     stroke-width="0"
     points="100,500 1000,500 1000,350 800,350 800,150 350,150, 350,350 100,350" />

  <polyline fill="none" stroke="#aaaaaa" stroke-width="2" stroke-dasharray="4,2" points="50,502 1050,502" />
  <polyline fill="none" stroke="#aaaaaa" stroke-width="2" stroke-dasharray="4,2" points="98,550 98,50" />

  <polyline fill="none" stroke="#A73B8F" stroke-width="3" points="100,350 350,350, 350,150 800,150 800,350 1000,350" />
  <path d="M 100 360 S 200 380 300 365 400 165 500 140 600 130 700 180 800 360 900 360 999 375 999 375" stroke="#501B73"
  stroke-width="4" fill="none" />

  <text x="500" y="540" class="small" fill="#666666">time</text>
  <text x="0" y="0" class="small" fill="#666666" transform="translate(70 350) rotate(-90)">requests</text>
  <text x="410" y="410" class="medium" fill="#A73B8F">Provisioned Concurrency</text>
  <text x="530" y="110" class="medium" fill="#501B73">Workload</text>
</svg>