<svg width="1150" height="600" viewBox="0 0 1150 600" fill="none" xmlns="http://www.w3.org/2000/svg">
  <style>
      .small { font-size: 28px; font-family: Burst My Bubble; }
      .medium { font-size: 35px; font-family: Burst My Bubble; }
  </style>

  <polyline fill="none" stroke="#aaaaaa" stroke-width="2" stroke-dasharray="4,2" points="50,502 1150,502" />
  <polyline fill="none" stroke="#aaaaaa" stroke-width="2" stroke-dasharray="4,2" points="98,550 98,50" />

  <polygon fill="#F9CDAC" stroke-width="0" points="790,501 790,100 1000,100 1000,501 " />

  <polygon fill="#A62C99" stroke="#2D0F41" stroke-width="2" points="840,500 860,500 860,470 840,470" />
  <polygon fill="#A62C99" stroke="#2D0F41" stroke-width="2" points="860,500 880,500 880,350 860,350" />
  <polygon fill="#A62C99" stroke="#2D0F41" stroke-width="2" points="880,500 900,500 900,150 880,150" />
  <polygon fill="#A62C99" stroke="#2D0F41" stroke-width="2" points="900,500 920,500 920,380 900,380" />
  <polygon fill="#A62C99" stroke="#2D0F41" stroke-width="2" points="920,500 940,500 940,480 920,480" />

  <polyline fill="none" stroke="#2D0F41" stroke-width="3" stroke-dasharray="4,2" points="790,500 790,50" />
  <polyline fill="none" stroke="#2D0F41" stroke-width="3" stroke-dasharray="4,2" points="1000,500 1000,50" />

  <text x="80" y="525" class="small" fill="#666666">0</text>
  <text x="780" y="525" class="small" fill="#666666">53</text>
  <text x="842" y="525" class="small" fill="#666666">58</text>
  <text x="880" y="525" class="small" fill="#666666">60</text>
  <text x="922" y="525" class="small" fill="#666666">62</text>
  <text x="995" y="525" class="small" fill="#666666">68</text>

  <text x="690" y="150" class="medium" fill="#2D0F41">Head</text>
  <text x="680" y="180" class="medium" fill="#2D0F41">cut-off</text>

  <text x="830" y="80" class="small" fill="#2D0F41">Warm zone</text>

  <text x="1040" y="150" class="medium" fill="#2D0F41">Tail</text>
  <text x="1020" y="180" class="medium" fill="#2D0F41">cut-off</text>

  <text x="450" y="570" class="medium" fill="#666666">minutes since last request</text>
  <text x="0" y="0" class="medium" fill="#666666" transform="translate(55 330) rotate(-90)">frequency</text>
</svg>