<svg width="1150" height="600" viewBox="0 0 1150 600" fill="none" xmlns="http://www.w3.org/2000/svg">
  <style>
      .small { font-size: 28px; font-family: Burst My Bubble; }
      .medium { font-size: 35px; font-family: Burst My Bubble; }
  </style>

  <polyline fill="none" stroke="#aaaaaa" stroke-width="2" stroke-dasharray="4,2" points="50,502 1150,502" />
  <polyline fill="none" stroke="#aaaaaa" stroke-width="2" stroke-dasharray="4,2" points="98,550 98,50" />

  <polygon fill="#F9CDAC" stroke-width="0" points="99,501 99,100 270,100 270,501 " />

  <polygon fill="#A62C99" stroke="#2D0F41" stroke-width="2" points="100,500 120,500 120,150 100,150" />
  <polygon fill="#A62C99" stroke="#2D0F41" stroke-width="2" points="120,500 140,500 140,310 120,310" />
  <polygon fill="#A62C99" stroke="#2D0F41" stroke-width="2" points="140,500 160,500 160,360 140,360" />
  <polygon fill="#A62C99" stroke="#2D0F41" stroke-width="2" points="160,500 180,500 180,430 160,430" />
  <polygon fill="#A62C99" stroke="#2D0F41" stroke-width="2" points="180,500 200,500 200,470 180,470" />
  <polygon fill="#A62C99" stroke="#2D0F41" stroke-width="2" points="200,500 220,500 220,490 200,490" />
  <polygon fill="#A62C99" stroke="#2D0F41" stroke-width="2" points="220,500 240,500 240,495 220,495" />

  <polyline fill="none" stroke="#2D0F41" stroke-width="3" stroke-dasharray="4,2" points="270,500 270,50" />

  <text x="80" y="525" class="small" fill="#666666">0</text>

  <text x="120" y="80" class="small" fill="#2D0F41">Warm zone</text>

  <text x="310" y="150" class="medium" fill="#2D0F41">Tail</text>
  <text x="290" y="180" class="medium" fill="#2D0F41">cut-off</text>

  <text x="450" y="570" class="medium" fill="#666666">minutes since last request</text>
  <text x="0" y="0" class="medium" fill="#666666" transform="translate(55 330) rotate(-90)">frequency</text>
</svg>