<svg width="1150" height="600" viewBox="0 0 1150 600" fill="none" xmlns="http://www.w3.org/2000/svg">
  <style>
      .small { font-size: 28px; font-family: Burst My Bubble; }
      .medium { font-size: 35px; font-family: Burst My Bubble; }
  </style>

  <polyline fill="none" stroke="#aaaaaa" stroke-width="2" stroke-dasharray="4,2" points="50,502 1150,502" />
  <polyline fill="none" stroke="#aaaaaa" stroke-width="2" stroke-dasharray="4,2" points="98,550 98,50" />

  <polygon fill="#F9CDAC" stroke-width="0" points="99,501 99,100 1020,100 1020,501 " />

  <polygon fill="#A62C99" stroke="#2D0F41" stroke-width="2" points="180,500 200,500 200,460 180,460" />
  <polygon fill="#A62C99" stroke="#2D0F41" stroke-width="2" points="220,500 240,500 240,430 220,430" />
  <polygon fill="#A62C99" stroke="#2D0F41" stroke-width="2" points="260,500 280,500 280,420 260,420" />
  <polygon fill="#A62C99" stroke="#2D0F41" stroke-width="2" points="280,500 300,500 300,440 280,440" />
  <polygon fill="#A62C99" stroke="#2D0F41" stroke-width="2" points="340,500 360,500 360,470 340,470" />
  <polygon fill="#A62C99" stroke="#2D0F41" stroke-width="2" points="400,500 420,500 420,490 400,490" />
  <polygon fill="#A62C99" stroke="#2D0F41" stroke-width="2" points="480,500 500,500 500,460 480,460" />
  <polygon fill="#A62C99" stroke="#2D0F41" stroke-width="2" points="520,500 540,500 540,440 520,440" />
  <polygon fill="#A62C99" stroke="#2D0F41" stroke-width="2" points="640,500 660,500 660,480 640,480" />
  <polygon fill="#A62C99" stroke="#2D0F41" stroke-width="2" points="780,500 800,500 800,490 780,490" />
  <polygon fill="#A62C99" stroke="#2D0F41" stroke-width="2" points="820,500 840,500 840,470 820,470" />
  <polygon fill="#A62C99" stroke="#2D0F41" stroke-width="2" points="940,500 960,500 960,490 940,490" />

  <polyline fill="none" stroke="#2D0F41" stroke-width="3" stroke-dasharray="4,2" points="1020,500 1020,50" />

  <text x="80" y="525" class="small" fill="#666666">0</text>
  <text x="1005" y="525" class="small" fill="#666666">240</text>

  <text x="440" y="80" class="small" fill="#2D0F41">Extended keep-alive policy</text>

  <text x="1060" y="150" class="medium" fill="#2D0F41">Tail</text>
  <text x="1040" y="180" class="medium" fill="#2D0F41">cut-off</text>

  <text x="450" y="570" class="medium" fill="#666666">minutes since last request</text>
  <text x="0" y="0" class="medium" fill="#666666" transform="translate(55 330) rotate(-90)">frequency</text>
</svg>