<svg width="1150" height="600" viewBox="0 0 1150 600" fill="none" xmlns="http://www.w3.org/2000/svg">
  <style>
      .small { font-size: 28px; font-family: Burst My Bubble; }
      .medium { font-size: 35px; font-family: Burst My Bubble; }
  </style>

  <polyline fill="none" stroke="#aaaaaa" stroke-width="2" stroke-dasharray="4,2" points="50,502 1150,502" />
  <polyline fill="none" stroke="#aaaaaa" stroke-width="2" stroke-dasharray="4,2" points="98,550 98,50" />

  <polygon fill="#F9CDAC" stroke-width="0" points="500,501 500,100 800,100 800,501 " />

  <polygon fill="#A62C99" stroke="#2D0F41" stroke-width="2" points="560,500 580,500 580,490 560,490" />
  <polygon fill="#A62C99" stroke="#2D0F41" stroke-width="2" points="580,500 600,500 600,470 580,470" />
  <polygon fill="#A62C99" stroke="#2D0F41" stroke-width="2" points="600,500 620,500 620,370 600,370" />
  <polygon fill="#A62C99" stroke="#2D0F41" stroke-width="2" points="620,500 640,500 640,390 620,390" />
  <polygon fill="#A62C99" stroke="#2D0F41" stroke-width="2" points="640,500 660,500 660,250 640,250" />
  <polygon fill="#A62C99" stroke="#2D0F41" stroke-width="2" points="660,500 680,500 680,350 660,350" />
  <polygon fill="#A62C99" stroke="#2D0F41" stroke-width="2" points="680,500 700,500 700,150 680,150" />
  <polygon fill="#A62C99" stroke="#2D0F41" stroke-width="2" points="700,500 720,500 720,380 700,380" />
  <polygon fill="#A62C99" stroke="#2D0F41" stroke-width="2" points="720,500 740,500 740,480 720,480" />

  <polyline fill="none" stroke="#2D0F41" stroke-width="3" stroke-dasharray="4,2" points="500,500 500,50" />
  <polyline fill="none" stroke="#2D0F41" stroke-width="3" stroke-dasharray="4,2" points="800,500 800,50" />

  <text x="80" y="525" class="small" fill="#666666">0</text>

  <text x="400" y="150" class="medium" fill="#2D0F41">Head</text>
  <text x="390" y="180" class="medium" fill="#2D0F41">cut-off</text>

  <text x="580" y="80" class="small" fill="#2D0F41">Warm zone</text>

  <text x="840" y="150" class="medium" fill="#2D0F41">Tail</text>
  <text x="820" y="180" class="medium" fill="#2D0F41">cut-off</text>

  <text x="450" y="570" class="medium" fill="#666666">minutes since last request</text>
  <text x="0" y="0" class="medium" fill="#666666" transform="translate(55 330) rotate(-90)">frequency</text>
</svg>