<svg width="1500" height="750" viewBox="0 0 1500 750" fill="none" xmlns="http://www.w3.org/2000/svg" version="1.2">
  <defs>
    <linearGradient id="f7543904-4a89-435e-96cd-11521c829faa" x1="9" y1="11.95" x2="9" gradientUnits="userSpaceOnUse"><stop offset="0" stop-color="#0078d4"/><stop offset="0.16" stop-color="#1380da"/><stop offset="0.53" stop-color="#3c91e5"/><stop offset="0.82" stop-color="#559cec"/><stop offset="1" stop-color="#5ea0ef"/></linearGradient>
    <linearGradient id="acf8419d-8bd3-4d4c-a313-79bfa4dbbb30" x1="8.67" y1="17.54" x2="8.67" y2="-1.19" gradientUnits="userSpaceOnUse"><stop offset="0" stop-color="#0078d4"/><stop offset="0.16" stop-color="#1380da"/><stop offset="0.53" stop-color="#3c91e5"/><stop offset="0.82" stop-color="#559cec"/><stop offset="1" stop-color="#5ea0ef"/></linearGradient>
    <linearGradient id="b70b4374-3fee-4f3a-a2a1-8f4484807b01" x1="12.96" y1="10.5" x2="12.96" y2="12.92" gradientUnits="userSpaceOnUse"><stop offset="0" stop-color="#333132"/><stop offset="1" stop-color="#5b5a5c"/></linearGradient>
    <linearGradient id="e291aba6-8038-4db1-a04d-c7be74f5a3e6" x1="2.59" y1="10.16" x2="15.41" y2="10.16" gradientUnits="userSpaceOnUse"><stop offset="0" stop-color="#005ba1"/><stop offset="0.07" stop-color="#0060a9"/><stop offset="0.36" stop-color="#0071c8"/><stop offset="0.52" stop-color="#0078d4"/><stop offset="0.64" stop-color="#0074cd"/><stop offset="0.82" stop-color="#006abb"/><stop offset="1" stop-color="#005ba1"/></linearGradient>
    <linearGradient id="f34d9569-2bd0-4002-8f16-3d01d8106cb5" x1="8.88" y1="12.21" x2="8.88" y2="0.21" gradientUnits="userSpaceOnUse"><stop offset="0" stop-color="#0078d4"/><stop offset="0.82" stop-color="#5ea0ef"/></linearGradient>
    <linearGradient id="bdb45a0b-eb58-4970-a60a-fb2ce314f866" x1="8.88" y1="16.84" x2="8.88" y2="12.21" gradientUnits="userSpaceOnUse"><stop offset="0.15" stop-color="#ccc"/><stop offset="1" stop-color="#707070"/></linearGradient>
  </defs>
 <style>
    .small { font: normal 1.6em "Burst My Bubble"; }
    .smallb { font: bold 1.8em "Burst My Bubble"; }
    .medium { font: normal 2.2em "Burst My Bubble"; }
    .large { font: normal 3em "Burst My Bubble"; }
  </style>  

  <g transform="translate(50,190)">
    <g transform="scale(8,8)">
      <rect x="-0.12" y="0.21" width="18" height="12" rx="0.6" fill="url(#f34d9569-2bd0-4002-8f16-3d01d8106cb5)"/>
      <path d="M12.49,15.84c-1.78-.28-1.85-1.56-1.85-3.63H7.11c0,2.07-.06,3.35-1.84,3.63a1,1,0,0,0-.89,1h9A1,1,0,0,0,12.49,15.84Z" fill="url(#bdb45a0b-eb58-4970-a60a-fb2ce314f866)"/>
    </g>
    <text x="20" y="180" class="medium" fill="#33AA44">Browser</text>

    <g transform="translate(310,20)" fill="#33AA44">
      <g transform="scale(0.011,0.01) rotate(160)" stroke="none">
        <path d="M2123 4381 c-28 -26 -136 -87 -240 -159 -566 -391 -830 -534 -1460
        -791 -255 -103 -316 -133 -335 -160 -8 -11 -26 -23 -41 -26 -42 -11 -53 -31
        -31 -56 27 -30 83 -57 382 -180 598 -248 975 -458 1522 -848 220 -157 301
        -197 316 -156 8 20 -11 73 -50 138 l-33 55 35 -15 c34 -14 37 -14 54 7 26 32
        23 65 -32 340 -65 326 -101 600 -80 600 5 0 54 -7 108 -15 434 -64 1496 -100
        3732 -125 2218 -25 3439 -32 4315 -27 1391 10 1873 33 2290 113 153 29 201 43
        216 60 16 20 -43 32 -251 49 -260 22 -622 32 -1655 50 -3240 54 -6854 79
        -8070 56 -341 -6 -637 -14 -657 -18 l-38 -6 0 139 c0 152 9 272 41 524 12 91
        22 208 23 260 2 64 8 105 19 126 8 17 17 44 19 60 3 25 -1 29 -22 32 -14 1
        -48 -11 -77 -27z m-253 -525 c-140 -362 -156 -780 -44 -1131 14 -44 47 -127
        74 -183 l50 -104 -82 77 c-350 329 -876 602 -1343 696 l-60 12 112 23 c224 45
        440 122 673 240 223 113 398 229 575 383 39 34 71 61 72 61 1 0 -12 -33 -27
        -74z"/>
      </g>
    </g>
    <text x="190" y="5" class="smallb" fill="#33AA44">HTTP</text>

    <g transform="translate(290,180)" fill="#33AA44">
      <g transform="scale(0.011,0.01) rotate(200)" stroke="none">
        <path d="M2123 4381 c-28 -26 -136 -87 -240 -159 -566 -391 -830 -534 -1460
        -791 -255 -103 -316 -133 -335 -160 -8 -11 -26 -23 -41 -26 -42 -11 -53 -31
        -31 -56 27 -30 83 -57 382 -180 598 -248 975 -458 1522 -848 220 -157 301
        -197 316 -156 8 20 -11 73 -50 138 l-33 55 35 -15 c34 -14 37 -14 54 7 26 32
        23 65 -32 340 -65 326 -101 600 -80 600 5 0 54 -7 108 -15 434 -64 1496 -100
        3732 -125 2218 -25 3439 -32 4315 -27 1391 10 1873 33 2290 113 153 29 201 43
        216 60 16 20 -43 32 -251 49 -260 22 -622 32 -1655 50 -3240 54 -6854 79
        -8070 56 -341 -6 -637 -14 -657 -18 l-38 -6 0 139 c0 152 9 272 41 524 12 91
        22 208 23 260 2 64 8 105 19 126 8 17 17 44 19 60 3 25 -1 29 -22 32 -14 1
        -48 -11 -77 -27z m-253 -525 c-140 -362 -156 -780 -44 -1131 14 -44 47 -127
        74 -183 l50 -104 -82 77 c-350 329 -876 602 -1343 696 l-60 12 112 23 c224 45
        440 122 673 240 223 113 398 229 575 383 39 34 71 61 72 61 1 0 -12 -33 -27
        -74z"/>
      </g>
    </g>
    <text x="190" y="170" class="smallb" fill="#33AA44">HTTP</text>
  </g>

  <!-- AKS Cluster -->
  <g transform="translate(300,50)">
    <rect x="0" y="0" width="530" height="450" stroke="#67B2C7" stroke-width="3" stroke-dasharray="5 5" fill="#6BB5C5" fill-opacity="0.1"/>    
  </g>
  <!-- Web Console -->
  <g transform="translate(350,50)">
    <g transform="scale(8,8)">
      <g transform="matrix(1.0148887,0,0,1.0148887,16.902146,-2.698726)">
        <path d="m -6.8492015,4.2724668 a 1.1191255,1.1099671 0 0 0 -0.4288818,0.1085303 l -5.8524037,2.7963394 a 1.1191255,1.1099671 0 0 0 -0.605524,0.7529759 l -1.443828,6.2812846 a 1.1191255,1.1099671 0 0 0 0.151943,0.851028 1.1191255,1.1099671 0 0 0 0.06362,0.08832 l 4.0508,5.036555 a 1.1191255,1.1099671 0 0 0 0.874979,0.417654 l 6.4961011,-0.0015 a 1.1191255,1.1099671 0 0 0 0.8749788,-0.416906 L 1.3818872,15.149453 A 1.1191255,1.1099671 0 0 0 1.5981986,14.210104 L 0.15212657,7.9288154 A 1.1191255,1.1099671 0 0 0 -0.45339794,7.1758396 L -6.3065496,4.3809971 A 1.1191255,1.1099671 0 0 0 -6.8492015,4.2724668 Z" style="fill:#326ce5;fill-opacity:1;stroke:none;stroke-width:0;stroke-miterlimit:4;stroke-dasharray:none;stroke-opacity:1" />
        <path d="M -6.8523435,3.8176372 A 1.1814304,1.171762 0 0 0 -7.3044284,3.932904 l -6.1787426,2.9512758 a 1.1814304,1.171762 0 0 0 -0.639206,0.794891 l -1.523915,6.6308282 a 1.1814304,1.171762 0 0 0 0.160175,0.89893 1.1814304,1.171762 0 0 0 0.06736,0.09281 l 4.276094,5.317236 a 1.1814304,1.171762 0 0 0 0.92363,0.440858 l 6.8576188,-0.0015 a 1.1814304,1.171762 0 0 0 0.9236308,-0.44011 l 4.2745966,-5.317985 a 1.1814304,1.171762 0 0 0 0.228288,-0.990993 L 0.53894439,7.6775738 A 1.1814304,1.171762 0 0 0 -0.10026101,6.8834313 L -6.2790037,3.9321555 A 1.1814304,1.171762 0 0 0 -6.8523435,3.8176372 Z m 0.00299,0.4550789 a 1.1191255,1.1099671 0 0 1 0.5426517,0.1085303 l 5.85315169,2.7948425 A 1.1191255,1.1099671 0 0 1 0.15197811,7.9290648 L 1.598051,14.21035 a 1.1191255,1.1099671 0 0 1 -0.2163123,0.939348 l -4.0493032,5.037304 a 1.1191255,1.1099671 0 0 1 -0.8749789,0.416906 l -6.4961006,0.0015 a 1.1191255,1.1099671 0 0 1 -0.874979,-0.417652 l -4.0508,-5.036554 a 1.1191255,1.1099671 0 0 1 -0.06362,-0.08832 1.1191255,1.1099671 0 0 1 -0.151942,-0.851028 l 1.443827,-6.2812853 a 1.1191255,1.1099671 0 0 1 0.605524,-0.7529758 l 5.8524036,-2.7963395 a 1.1191255,1.1099671 0 0 1 0.4288819,-0.1085303 z" style="color:#000000;font-style:normal;font-variant:normal;font-weight:normal;font-stretch:normal;font-size:medium;line-height:normal;font-family:Sans;-inkscape-font-specification:Sans;text-indent:0;text-align:start;text-decoration:none;text-decoration-line:none;letter-spacing:normal;word-spacing:normal;text-transform:none;writing-mode:lr-tb;direction:ltr;baseline-shift:baseline;text-anchor:start;display:inline;overflow:visible;visibility:visible;fill:#ffffff;fill-opacity:1;fill-rule:nonzero;stroke:none;stroke-width:0;stroke-miterlimit:4;stroke-dasharray:none;marker:none;enable-background:accumulate" />
      </g>
      <g transform="translate(0.09238801,0.66897746)">
        <path style="fill:#ffffff;fill-rule:evenodd;stroke:none;stroke-width:0.26458332;stroke-linecap:square;stroke-miterlimit:10" d="m 4.4949896,11.260826 2.9083311,0 0,2.041667 -2.9083311,0 z" />
        <path style="fill:#ffffff;fill-rule:evenodd;stroke:none;stroke-width:0.26458332;stroke-linecap:square;stroke-miterlimit:10" d="m 8.4637407,11.260826 2.9083303,0 0,2.041667 -2.9083303,0 z" />
        <path style="fill:#ffffff;fill-rule:evenodd;stroke:none;stroke-width:0.26458332;stroke-linecap:square;stroke-miterlimit:10" d="m 12.432491,11.260826 2.90833,0 0,2.041667 -2.90833,0 z" />
        <path style="fill:#ffffff;fill-rule:evenodd;stroke:none;stroke-width:0.26458332;stroke-linecap:square;stroke-miterlimit:10" d="m 7.6137407,5.2082921 4.6083303,0 0,2.041667 -4.6083303,0 z" />
        <path style="fill:none;fill-rule:evenodd;stroke:#ffffff;stroke-width:0.52916664;stroke-linecap:butt;stroke-linejoin:round;stroke-miterlimit:10;stroke-opacity:1" d="m 9.9179005,7.2499601 0,2.005449 -3.966671,0 0,2.0028859" />
        <path style="fill:none;fill-rule:evenodd;stroke:#ffffff;stroke-width:0.52899998;stroke-linecap:butt;stroke-linejoin:round;stroke-miterlimit:10;stroke-dasharray:none;stroke-opacity:1" d="m 9.9179005,7.2499601 0,2.005449 3.9666705,0 0,2.0028859" />
        <path style="fill:none;fill-rule:evenodd;stroke:#ffffff;stroke-width:0.52916664;stroke-linecap:butt;stroke-linejoin:round;stroke-miterlimit:10;stroke-opacity:1" d="m 9.9095538,7.2512251 0,2.005449 0.0167,0 0,2.0028859" />
      </g>
    </g>
    <text x="10" y="180" class="medium" fill="#008AD7">Web Console</text>

    <g transform="translate(300,100)" fill="#008AD7">
      <g transform="scale(0.01,-0.01) rotate(160)" stroke="none">
        <path d="M2123 4381 c-28 -26 -136 -87 -240 -159 -566 -391 -830 -534 -1460
        -791 -255 -103 -316 -133 -335 -160 -8 -11 -26 -23 -41 -26 -42 -11 -53 -31
        -31 -56 27 -30 83 -57 382 -180 598 -248 975 -458 1522 -848 220 -157 301
        -197 316 -156 8 20 -11 73 -50 138 l-33 55 35 -15 c34 -14 37 -14 54 7 26 32
        23 65 -32 340 -65 326 -101 600 -80 600 5 0 54 -7 108 -15 434 -64 1496 -100
        3732 -125 2218 -25 3439 -32 4315 -27 1391 10 1873 33 2290 113 153 29 201 43
        216 60 16 20 -43 32 -251 49 -260 22 -622 32 -1655 50 -3240 54 -6854 79
        -8070 56 -341 -6 -637 -14 -657 -18 l-38 -6 0 139 c0 152 9 272 41 524 12 91
        22 208 23 260 2 64 8 105 19 126 8 17 17 44 19 60 3 25 -1 29 -22 32 -14 1
        -48 -11 -77 -27z m-253 -525 c-140 -362 -156 -780 -44 -1131 14 -44 47 -127
        74 -183 l50 -104 -82 77 c-350 329 -876 602 -1343 696 l-60 12 112 23 c224 45
        440 122 673 240 223 113 398 229 575 383 39 34 71 61 72 61 1 0 -12 -33 -27
        -74z"/>
      </g>
    </g>
    <text x="230" y="60" class="smallb" fill="#008AD7">gRPC</text>
  </g>
  
  <!-- Worker -->
  <g transform="translate(360,300)">
    <g transform="scale(8,8)">
      <g transform="matrix(1.0148887,0,0,1.0148887,16.902146,-2.698726)">
        <path d="m -6.8492015,4.2724668 a 1.1191255,1.1099671 0 0 0 -0.4288818,0.1085303 l -5.8524037,2.7963394 a 1.1191255,1.1099671 0 0 0 -0.605524,0.7529759 l -1.443828,6.2812846 a 1.1191255,1.1099671 0 0 0 0.151943,0.851028 1.1191255,1.1099671 0 0 0 0.06362,0.08832 l 4.0508,5.036555 a 1.1191255,1.1099671 0 0 0 0.874979,0.417654 l 6.4961011,-0.0015 a 1.1191255,1.1099671 0 0 0 0.8749788,-0.416906 L 1.3818872,15.149453 A 1.1191255,1.1099671 0 0 0 1.5981986,14.210104 L 0.15212657,7.9288154 A 1.1191255,1.1099671 0 0 0 -0.45339794,7.1758396 L -6.3065496,4.3809971 A 1.1191255,1.1099671 0 0 0 -6.8492015,4.2724668 Z" style="fill:#326ce5;fill-opacity:1;stroke:none;stroke-width:0;stroke-miterlimit:4;stroke-dasharray:none;stroke-opacity:1" />
        <path d="M -6.8523435,3.8176372 A 1.1814304,1.171762 0 0 0 -7.3044284,3.932904 l -6.1787426,2.9512758 a 1.1814304,1.171762 0 0 0 -0.639206,0.794891 l -1.523915,6.6308282 a 1.1814304,1.171762 0 0 0 0.160175,0.89893 1.1814304,1.171762 0 0 0 0.06736,0.09281 l 4.276094,5.317236 a 1.1814304,1.171762 0 0 0 0.92363,0.440858 l 6.8576188,-0.0015 a 1.1814304,1.171762 0 0 0 0.9236308,-0.44011 l 4.2745966,-5.317985 a 1.1814304,1.171762 0 0 0 0.228288,-0.990993 L 0.53894439,7.6775738 A 1.1814304,1.171762 0 0 0 -0.10026101,6.8834313 L -6.2790037,3.9321555 A 1.1814304,1.171762 0 0 0 -6.8523435,3.8176372 Z m 0.00299,0.4550789 a 1.1191255,1.1099671 0 0 1 0.5426517,0.1085303 l 5.85315169,2.7948425 A 1.1191255,1.1099671 0 0 1 0.15197811,7.9290648 L 1.598051,14.21035 a 1.1191255,1.1099671 0 0 1 -0.2163123,0.939348 l -4.0493032,5.037304 a 1.1191255,1.1099671 0 0 1 -0.8749789,0.416906 l -6.4961006,0.0015 a 1.1191255,1.1099671 0 0 1 -0.874979,-0.417652 l -4.0508,-5.036554 a 1.1191255,1.1099671 0 0 1 -0.06362,-0.08832 1.1191255,1.1099671 0 0 1 -0.151942,-0.851028 l 1.443827,-6.2812853 a 1.1191255,1.1099671 0 0 1 0.605524,-0.7529758 l 5.8524036,-2.7963395 a 1.1191255,1.1099671 0 0 1 0.4288819,-0.1085303 z" style="color:#000000;font-style:normal;font-variant:normal;font-weight:normal;font-stretch:normal;font-size:medium;line-height:normal;font-family:Sans;-inkscape-font-specification:Sans;text-indent:0;text-align:start;text-decoration:none;text-decoration-line:none;letter-spacing:normal;word-spacing:normal;text-transform:none;writing-mode:lr-tb;direction:ltr;baseline-shift:baseline;text-anchor:start;display:inline;overflow:visible;visibility:visible;fill:#ffffff;fill-opacity:1;fill-rule:nonzero;stroke:none;stroke-width:0;stroke-miterlimit:4;stroke-dasharray:none;marker:none;enable-background:accumulate" />
      </g>
      <g transform="translate(0.09238801,0.66897746)">
        <path style="fill:#ffffff;fill-rule:evenodd;stroke:none;stroke-width:0.26458332;stroke-linecap:square;stroke-miterlimit:10" d="m 4.4949896,11.260826 2.9083311,0 0,2.041667 -2.9083311,0 z" />
        <path style="fill:#ffffff;fill-rule:evenodd;stroke:none;stroke-width:0.26458332;stroke-linecap:square;stroke-miterlimit:10" d="m 8.4637407,11.260826 2.9083303,0 0,2.041667 -2.9083303,0 z" />
        <path style="fill:#ffffff;fill-rule:evenodd;stroke:none;stroke-width:0.26458332;stroke-linecap:square;stroke-miterlimit:10" d="m 12.432491,11.260826 2.90833,0 0,2.041667 -2.90833,0 z" />
        <path style="fill:#ffffff;fill-rule:evenodd;stroke:none;stroke-width:0.26458332;stroke-linecap:square;stroke-miterlimit:10" d="m 7.6137407,5.2082921 4.6083303,0 0,2.041667 -4.6083303,0 z" />
        <path style="fill:none;fill-rule:evenodd;stroke:#ffffff;stroke-width:0.52916664;stroke-linecap:butt;stroke-linejoin:round;stroke-miterlimit:10;stroke-opacity:1" d="m 9.9179005,7.2499601 0,2.005449 -3.966671,0 0,2.0028859" />
        <path style="fill:none;fill-rule:evenodd;stroke:#ffffff;stroke-width:0.52899998;stroke-linecap:butt;stroke-linejoin:round;stroke-miterlimit:10;stroke-dasharray:none;stroke-opacity:1" d="m 9.9179005,7.2499601 0,2.005449 3.9666705,0 0,2.0028859" />
        <path style="fill:none;fill-rule:evenodd;stroke:#ffffff;stroke-width:0.52916664;stroke-linecap:butt;stroke-linejoin:round;stroke-miterlimit:10;stroke-opacity:1" d="m 9.9095538,7.2512251 0,2.005449 0.0167,0 0,2.0028859" />
      </g>
    </g>
    <text x="30" y="180" class="medium" fill="#008AD7">Worker</text>

    <g transform="translate(190,120)" fill="#008AD7">
      <g transform="scale(0.012,0.01) rotate(40)" stroke="none">
        <path d="M2123 4381 c-28 -26 -136 -87 -240 -159 -566 -391 -830 -534 -1460
        -791 -255 -103 -316 -133 -335 -160 -8 -11 -26 -23 -41 -26 -42 -11 -53 -31
        -31 -56 27 -30 83 -57 382 -180 598 -248 975 -458 1522 -848 220 -157 301
        -197 316 -156 8 20 -11 73 -50 138 l-33 55 35 -15 c34 -14 37 -14 54 7 26 32
        23 65 -32 340 -65 326 -101 600 -80 600 5 0 54 -7 108 -15 434 -64 1496 -100
        3732 -125 2218 -25 3439 -32 4315 -27 1391 10 1873 33 2290 113 153 29 201 43
        216 60 16 20 -43 32 -251 49 -260 22 -622 32 -1655 50 -3240 54 -6854 79
        -8070 56 -341 -6 -637 -14 -657 -18 l-38 -6 0 139 c0 152 9 272 41 524 12 91
        22 208 23 260 2 64 8 105 19 126 8 17 17 44 19 60 3 25 -1 29 -22 32 -14 1
        -48 -11 -77 -27z m-253 -525 c-140 -362 -156 -780 -44 -1131 14 -44 47 -127
        74 -183 l50 -104 -82 77 c-350 329 -876 602 -1343 696 l-60 12 112 23 c224 45
        440 122 673 240 223 113 398 229 575 383 39 34 71 61 72 61 1 0 -12 -33 -27
        -74z"/>
      </g>
    </g>
    <text x="150" y="230" class="smallb" fill="#008AD7">Docker pull</text>

    <g transform="translate(290,0)" fill="#008AD7">
      <g transform="scale(0.01,0.01) rotate(150)" stroke="none">
        <path d="M2123 4381 c-28 -26 -136 -87 -240 -159 -566 -391 -830 -534 -1460
        -791 -255 -103 -316 -133 -335 -160 -8 -11 -26 -23 -41 -26 -42 -11 -53 -31
        -31 -56 27 -30 83 -57 382 -180 598 -248 975 -458 1522 -848 220 -157 301
        -197 316 -156 8 20 -11 73 -50 138 l-33 55 35 -15 c34 -14 37 -14 54 7 26 32
        23 65 -32 340 -65 326 -101 600 -80 600 5 0 54 -7 108 -15 434 -64 1496 -100
        3732 -125 2218 -25 3439 -32 4315 -27 1391 10 1873 33 2290 113 153 29 201 43
        216 60 16 20 -43 32 -251 49 -260 22 -622 32 -1655 50 -3240 54 -6854 79
        -8070 56 -341 -6 -637 -14 -657 -18 l-38 -6 0 139 c0 152 9 272 41 524 12 91
        22 208 23 260 2 64 8 105 19 126 8 17 17 44 19 60 3 25 -1 29 -22 32 -14 1
        -48 -11 -77 -27z m-253 -525 c-140 -362 -156 -780 -44 -1131 14 -44 47 -127
        74 -183 l50 -104 -82 77 c-350 329 -876 602 -1343 696 l-60 12 112 23 c224 45
        440 122 673 240 223 113 398 229 575 383 39 34 71 61 72 61 1 0 -12 -33 -27
        -74z"/>
      </g>
    </g>
    <text x="220" y="40" class="smallb" fill="#008AD7">gRPC</text>
  </g>

  <!-- Container registry -->
  <g transform="translate(650,510)">
    <g transform="scale(8,8)">  
      <path d="M16.22,7.44A4.19,4.19,0,0,0,14,6.32,4.91,4.91,0,0,0,8.9,1.62,5.07,5.07,0,0,0,4.06,4.91,4.62,4.62,0,0,0,0,9.39a4.73,4.73,0,0,0,4.89,4.54l.43,0h7.92l.21,0a4,4,0,0,0,3.92-3.81,3.67,3.67,0,0,0-1.14-2.63" fill="url(#acf8419d-8bd3-4d4c-a313-79bfa4dbbb30)"/>
      <polygon points="10.07 6.22 10.08 10.5 17.99 12.18 17.99 9.2 10.07 6.22" fill="#767676"/>
      <polyline points="10.07 6.22 7.93 7.52 7.93 11.5 10.08 10.5" fill="#999"/>
      <polygon points="13.68 10.56 14.4 10.76 14.4 8.43 13.68 8.18 13.68 10.56" fill="#a3a3a3"/>
      <polygon points="12.96 7.95 12.24 7.69 12.24 10.18 12.96 10.38 12.96 7.95" fill="#a3a3a3"/>
      <polygon points="15.12 10.95 15.82 11.14 15.84 8.92 15.12 8.68 15.12 10.95" fill="#a3a3a3"/>
      <polygon points="10.81 9.81 11.53 9.99 11.53 7.46 10.81 7.22 10.81 9.81" fill="#a3a3a3"/>
      <polygon points="17.27 9.41 16.55 9.16 16.55 11.33 17.27 11.53 17.27 9.41" fill="#a3a3a3"/>
      <path id="a8719886-8ecb-4bb1-abaf-d5d3808b2091" d="M8.66,10.43l-.36.21V7.81l.36-.19Zm.71-3.22L9,7.45V10.2L9.37,10Z" fill="#b3b3b3"/>
      <polygon points="17.99 12.18 15.83 12.92 7.93 11.5 10.08 10.5 17.99 12.18" fill="url(#b70b4374-3fee-4f3a-a2a1-8f4484807b01)"/>
      <polygon points="17.99 15.23 10.04 16.74 10.08 11.15 17.99 12.62 17.99 15.23" fill="#767676"/>
      <polygon points="10.81 15.82 10.81 12.27 11.53 12.36 11.53 15.7 10.81 15.82" fill="#a3a3a3"/>
      <polygon points="12.96 15.46 12.24 15.59 12.24 12.45 12.96 12.56 12.96 15.46 12.96 15.46" fill="#a3a3a3"/>
      <polygon points="13.68 15.35 13.68 12.63 14.4 12.72 14.4 15.22 13.68 15.35" fill="#a3a3a3"/>
      <polygon points="15.83 14.97 15.12 15.1 15.12 12.81 15.83 12.92 15.83 14.97" fill="#a3a3a3"/>
      <polygon points="17.29 14.74 16.55 14.87 16.55 12.99 17.24 13.08 17.29 14.74" fill="#a3a3a3"/>
      <path id="b8a4c988-6241-4bdc-bddf-c20634c3ebe1" d="M7.93,15.46V12.2l2.16-1v5.6Z" fill="#999"/>
      <path id="b623bcd9-1396-4807-80b7-64d0fc8848c0" d="M8.61,15.45l-.32-.16V12.53l.32-.15ZM9.38,12,9,12.19l0,3.48.37.19V12Z" fill="#b3b3b3"/>
    </g>
    <text x="15" y="160" class="medium" fill="#008AD7">Container</text>
    <text x="25" y="190" class="medium" fill="#008AD7">Registry</text>
  </g>  

  <!-- Temporal service -->
  <g transform="translate(640,130)">
    <g transform="scale(8,8)">
      <g transform="matrix(1.0148887,0,0,1.0148887,16.902146,-2.698726)">
        <path d="m -6.8492015,4.2724668 a 1.1191255,1.1099671 0 0 0 -0.4288818,0.1085303 l -5.8524037,2.7963394 a 1.1191255,1.1099671 0 0 0 -0.605524,0.7529759 l -1.443828,6.2812846 a 1.1191255,1.1099671 0 0 0 0.151943,0.851028 1.1191255,1.1099671 0 0 0 0.06362,0.08832 l 4.0508,5.036555 a 1.1191255,1.1099671 0 0 0 0.874979,0.417654 l 6.4961011,-0.0015 a 1.1191255,1.1099671 0 0 0 0.8749788,-0.416906 L 1.3818872,15.149453 A 1.1191255,1.1099671 0 0 0 1.5981986,14.210104 L 0.15212657,7.9288154 A 1.1191255,1.1099671 0 0 0 -0.45339794,7.1758396 L -6.3065496,4.3809971 A 1.1191255,1.1099671 0 0 0 -6.8492015,4.2724668 Z" style="fill:#326ce5;fill-opacity:1;stroke:none;stroke-width:0;stroke-miterlimit:4;stroke-dasharray:none;stroke-opacity:1" />
        <path d="M -6.8523435,3.8176372 A 1.1814304,1.171762 0 0 0 -7.3044284,3.932904 l -6.1787426,2.9512758 a 1.1814304,1.171762 0 0 0 -0.639206,0.794891 l -1.523915,6.6308282 a 1.1814304,1.171762 0 0 0 0.160175,0.89893 1.1814304,1.171762 0 0 0 0.06736,0.09281 l 4.276094,5.317236 a 1.1814304,1.171762 0 0 0 0.92363,0.440858 l 6.8576188,-0.0015 a 1.1814304,1.171762 0 0 0 0.9236308,-0.44011 l 4.2745966,-5.317985 a 1.1814304,1.171762 0 0 0 0.228288,-0.990993 L 0.53894439,7.6775738 A 1.1814304,1.171762 0 0 0 -0.10026101,6.8834313 L -6.2790037,3.9321555 A 1.1814304,1.171762 0 0 0 -6.8523435,3.8176372 Z m 0.00299,0.4550789 a 1.1191255,1.1099671 0 0 1 0.5426517,0.1085303 l 5.85315169,2.7948425 A 1.1191255,1.1099671 0 0 1 0.15197811,7.9290648 L 1.598051,14.21035 a 1.1191255,1.1099671 0 0 1 -0.2163123,0.939348 l -4.0493032,5.037304 a 1.1191255,1.1099671 0 0 1 -0.8749789,0.416906 l -6.4961006,0.0015 a 1.1191255,1.1099671 0 0 1 -0.874979,-0.417652 l -4.0508,-5.036554 a 1.1191255,1.1099671 0 0 1 -0.06362,-0.08832 1.1191255,1.1099671 0 0 1 -0.151942,-0.851028 l 1.443827,-6.2812853 a 1.1191255,1.1099671 0 0 1 0.605524,-0.7529758 l 5.8524036,-2.7963395 a 1.1191255,1.1099671 0 0 1 0.4288819,-0.1085303 z" style="color:#000000;font-style:normal;font-variant:normal;font-weight:normal;font-stretch:normal;font-size:medium;line-height:normal;font-family:Sans;-inkscape-font-specification:Sans;text-indent:0;text-align:start;text-decoration:none;text-decoration-line:none;letter-spacing:normal;word-spacing:normal;text-transform:none;writing-mode:lr-tb;direction:ltr;baseline-shift:baseline;text-anchor:start;display:inline;overflow:visible;visibility:visible;fill:#ffffff;fill-opacity:1;fill-rule:nonzero;stroke:none;stroke-width:0;stroke-miterlimit:4;stroke-dasharray:none;marker:none;enable-background:accumulate" />
      </g>
      <g transform="translate(0.09238801,0.66897746)">
        <path style="fill:#ffffff;fill-rule:evenodd;stroke:none;stroke-width:0.26458332;stroke-linecap:square;stroke-miterlimit:10" d="m 4.4949896,11.260826 2.9083311,0 0,2.041667 -2.9083311,0 z" />
        <path style="fill:#ffffff;fill-rule:evenodd;stroke:none;stroke-width:0.26458332;stroke-linecap:square;stroke-miterlimit:10" d="m 8.4637407,11.260826 2.9083303,0 0,2.041667 -2.9083303,0 z" />
        <path style="fill:#ffffff;fill-rule:evenodd;stroke:none;stroke-width:0.26458332;stroke-linecap:square;stroke-miterlimit:10" d="m 12.432491,11.260826 2.90833,0 0,2.041667 -2.90833,0 z" />
        <path style="fill:#ffffff;fill-rule:evenodd;stroke:none;stroke-width:0.26458332;stroke-linecap:square;stroke-miterlimit:10" d="m 7.6137407,5.2082921 4.6083303,0 0,2.041667 -4.6083303,0 z" />
        <path style="fill:none;fill-rule:evenodd;stroke:#ffffff;stroke-width:0.52916664;stroke-linecap:butt;stroke-linejoin:round;stroke-miterlimit:10;stroke-opacity:1" d="m 9.9179005,7.2499601 0,2.005449 -3.966671,0 0,2.0028859" />
        <path style="fill:none;fill-rule:evenodd;stroke:#ffffff;stroke-width:0.52899998;stroke-linecap:butt;stroke-linejoin:round;stroke-miterlimit:10;stroke-dasharray:none;stroke-opacity:1" d="m 9.9179005,7.2499601 0,2.005449 3.9666705,0 0,2.0028859" />
        <path style="fill:none;fill-rule:evenodd;stroke:#ffffff;stroke-width:0.52916664;stroke-linecap:butt;stroke-linejoin:round;stroke-miterlimit:10;stroke-opacity:1" d="m 9.9095538,7.2512251 0,2.005449 0.0167,0 0,2.0028859" />
      </g>
    </g>

    <text x="20" y="180" class="medium" fill="#008AD7">Temporal</text>
    <text x="35" y="210" class="medium" fill="#008AD7">Service</text>
  </g>

  <!-- MySQL -->
  <g transform="translate(920,140)">
    <g transform="scale(8,8)">
      <path d="M9,5.14c-3.54,0-6.41-1-6.41-2.32V15.18c0,1.27,2.82,2.3,6.32,2.32H9c3.54,0,6.41-1,6.41-2.32V2.82C15.41,4.11,12.54,5.14,9,5.14Z" fill="url(#e291aba6-8038-4db1-a04d-c7be74f5a3e6)"/>
      <path d="M15.41,2.82c0,1.29-2.87,2.32-6.41,2.32s-6.41-1-6.41-2.32S5.46.5,9,.5s6.41,1,6.41,2.32" fill="#e8e8e8"/>
      <path d="M13.92,2.63c0,.82-2.21,1.48-4.92,1.48S4.08,3.45,4.08,2.63,6.29,1.16,9,1.16s4.92.66,4.92,1.47" fill="#50e6ff"/>
      <path d="M9,3a11.55,11.55,0,0,0-3.89.57A11.42,11.42,0,0,0,9,4.11a11.15,11.15,0,0,0,3.89-.58A11.84,11.84,0,0,0,9,3Z" fill="#198ab3"/>
      <path d="M12.64,9v1.63h-1a.39.39,0,0,1-.29-.14V9H10v1.78a.92.92,0,0,0,1,.89h1.49l.26-.13s-.11.41-.26.43H10.11v1h2.66A1.21,1.21,0,0,0,14,11.7V9Z" fill="#f2f2f2"/>
      <path d="M9.53,9s0,0,0,0V8.51a.7.7,0,0,0-.48-.77,1.74,1.74,0,0,0-.5-.08.94.94,0,0,0-.91.58l-.78,1.9-1-1.9A.93.93,0,0,0,5,7.66a1.44,1.44,0,0,0-.51.09c-.35.11-.43.34-.43.73v3.31H5.23V9.56l.63,1.57a1.08,1.08,0,0,0,1,.66c.44,0,.62-.26.8-.66l.67-1.51v2.15H9.51V9h0Z" fill="#f2f2f2"/>
    </g>
    <g transform="translate(0,110)" fill="#008AD7">
      <g transform="scale(0.01,0.01) rotate(185)" stroke="none">
        <path d="M2123 4381 c-28 -26 -136 -87 -240 -159 -566 -391 -830 -534 -1460
        -791 -255 -103 -316 -133 -335 -160 -8 -11 -26 -23 -41 -26 -42 -11 -53 -31
        -31 -56 27 -30 83 -57 382 -180 598 -248 975 -458 1522 -848 220 -157 301
        -197 316 -156 8 20 -11 73 -50 138 l-33 55 35 -15 c34 -14 37 -14 54 7 26 32
        23 65 -32 340 -65 326 -101 600 -80 600 5 0 54 -7 108 -15 434 -64 1496 -100
        3732 -125 2218 -25 3439 -32 4315 -27 1391 10 1873 33 2290 113 153 29 201 43
        216 60 16 20 -43 32 -251 49 -260 22 -622 32 -1655 50 -3240 54 -6854 79
        -8070 56 -341 -6 -637 -14 -657 -18 l-38 -6 0 139 c0 152 9 272 41 524 12 91
        22 208 23 260 2 64 8 105 19 126 8 17 17 44 19 60 3 25 -1 29 -22 32 -14 1
        -48 -11 -77 -27z m-253 -525 c-140 -362 -156 -780 -44 -1131 14 -44 47 -127
        74 -183 l50 -104 -82 77 c-350 329 -876 602 -1343 696 l-60 12 112 23 c224 45
        440 122 673 240 223 113 398 229 575 383 39 34 71 61 72 61 1 0 -12 -33 -27
        -74z"/>
      </g>
    </g>
    <text x="35" y="180" class="medium" fill="#008AD7">MySQL</text>
  </g>
</svg>
